<?xml version="1.0" standalone="no"?>
<!DOCTYPE svg PUBLIC "-//W3C//DTD SVG 20010904//EN"
 "http://www.w3.org/TR/2001/REC-SVG-20010904/DTD/svg10.dtd">
<svg version="1.0" xmlns="http://www.w3.org/2000/svg"
 width="2400.000000pt" height="3100.000000pt" viewBox="0 0 2400.000000 3100.000000"
 preserveAspectRatio="xMidYMid meet">
<metadata>
Created by potrace 1.16, written by Peter Selinger 2001-2019
</metadata>
<g transform="translate(0.000000,3100.000000) scale(0.100000,-0.100000)"
fill="#000000" stroke="none">
<path d="M11255 30742 c-140 -52 -204 -109 -343 -302 -25 -36 -54 -78 -63 -95
-97 -179 -139 -261 -139 -271 0 -15 -64 -64 -84 -64 -23 0 -199 -96 -289 -157
-44 -30 -94 -61 -112 -71 -59 -30 -247 -192 -385 -331 -167 -168 -266 -284
-347 -404 -34 -50 -75 -110 -90 -132 -26 -36 -49 -75 -120 -205 -14 -25 -28
-49 -33 -55 -4 -5 -33 -66 -64 -135 -32 -69 -62 -133 -67 -142 -5 -10 -9 -22
-9 -28 0 -6 -9 -29 -20 -53 -74 -161 -179 -568 -201 -782 -6 -55 -14 -127 -19
-160 -17 -110 -24 -531 -11 -675 19 -219 44 -381 78 -510 46 -175 46 -167 13
-425 -5 -38 -16 -124 -25 -190 -8 -66 -16 -190 -16 -275 -1 -211 15 -277 83
-347 23 -24 39 -45 36 -48 -3 -4 -46 14 -94 39 -49 25 -96 46 -105 46 -9 0
-19 3 -22 6 -18 18 -133 57 -220 74 -121 25 -171 25 -222 1 -57 -26 -70 -68
-62 -203 7 -125 42 -342 67 -418 4 -14 17 -59 29 -100 36 -128 54 -183 78
-238 13 -29 23 -59 23 -66 0 -8 16 -48 35 -89 19 -41 35 -79 35 -83 1 -5 9
-27 20 -49 11 -22 19 -44 20 -48 0 -16 153 -322 206 -413 45 -79 109 -181 213
-339 76 -116 306 -410 414 -529 227 -250 591 -597 747 -712 36 -26 81 -62 100
-79 19 -17 46 -39 60 -48 14 -9 69 -47 123 -83 53 -36 97 -70 97 -75 0 -12
-35 -11 -80 1 -33 8 -127 22 -380 55 -350 45 -985 46 -1415 1 -332 -35 -527
-61 -660 -90 -60 -13 -132 -27 -160 -31 -56 -8 -378 -88 -440 -110 -22 -7 -53
-20 -70 -29 -16 -9 -36 -16 -43 -16 -47 0 -157 -86 -167 -130 -16 -71 94 -215
269 -354 88 -70 251 -186 261 -186 2 0 28 -15 57 -34 56 -35 339 -176 355
-176 5 0 36 -13 69 -29 32 -15 73 -31 90 -35 17 -4 73 -23 125 -43 52 -19 110
-39 129 -43 19 -5 98 -24 175 -44 77 -20 151 -36 165 -36 14 0 57 -7 95 -15
39 -9 97 -20 130 -25 33 -4 83 -13 110 -20 78 -17 481 -37 680 -33 338 6 543
24 770 68 44 8 114 19 155 25 41 5 95 16 120 24 73 23 181 54 245 70 33 8 81
22 107 32 61 23 70 15 87 -81 20 -114 42 -209 52 -227 5 -10 9 -34 9 -53 0
-20 7 -52 15 -72 8 -19 15 -43 15 -53 0 -10 7 -23 15 -30 8 -7 15 -19 15 -27
0 -14 38 -118 65 -178 95 -209 172 -344 268 -468 34 -44 77 -100 95 -124 41
-55 293 -303 308 -303 5 0 25 -16 44 -35 19 -19 38 -35 44 -35 5 0 19 -9 30
-19 53 -48 325 -202 431 -242 28 -11 71 -31 96 -44 26 -14 56 -25 68 -25 12 0
29 -5 39 -11 9 -6 53 -23 97 -38 l80 -28 0 -79 0 -79 -50 1 c-28 0 -92 14
-147 32 -53 18 -116 36 -140 42 -24 5 -59 13 -78 19 -78 22 -158 43 -210 55
-30 8 -80 21 -110 30 -30 10 -109 31 -175 47 -66 17 -163 43 -216 60 -53 16
-106 29 -118 29 -12 0 -83 18 -159 39 -271 77 -459 121 -589 137 -44 6 -54 4
-59 -10 -17 -45 29 -811 66 -1086 5 -41 14 -138 19 -214 11 -147 10 -152 -35
-211 -29 -39 -83 -166 -100 -235 -21 -87 -18 -330 5 -405 53 -171 149 -323
252 -402 28 -21 52 -47 54 -58 6 -27 63 -326 76 -400 9 -52 8 -67 -9 -115 -11
-30 -33 -93 -50 -140 -42 -118 -109 -338 -116 -380 -3 -19 -12 -57 -20 -85
-36 -126 -48 -174 -55 -220 -5 -27 -25 -137 -45 -243 -20 -106 -36 -211 -36
-233 0 -32 -10 -56 -49 -112 -85 -125 -145 -219 -187 -297 -68 -124 -154 -296
-154 -310 0 -7 -11 -33 -25 -59 -28 -51 -86 -208 -117 -316 -38 -132 -44 -149
-55 -152 -5 -2 -51 81 -102 184 -117 238 -131 265 -147 283 -7 8 -25 40 -41
71 -82 163 -116 223 -170 302 -12 18 -34 55 -49 82 -15 28 -47 82 -72 120 -24
39 -57 90 -73 115 -36 57 -80 121 -146 215 -29 40 -53 76 -53 79 0 3 -28 41
-62 84 -35 43 -90 114 -123 157 -76 99 -281 294 -338 323 -84 42 -156 21 -171
-48 -3 -14 -13 -56 -22 -95 -15 -57 -18 -118 -18 -325 -1 -220 3 -286 27 -485
15 -126 34 -252 42 -280 7 -27 16 -76 20 -108 4 -32 15 -89 26 -127 10 -39 19
-79 19 -90 0 -26 79 -304 132 -465 67 -203 149 -409 206 -520 14 -27 45 -86
67 -130 98 -189 141 -263 265 -445 91 -133 291 -400 301 -400 3 0 37 -37 75
-82 38 -45 105 -118 149 -163 98 -100 446 -420 498 -458 20 -16 37 -33 37 -40
0 -7 10 -23 23 -37 13 -14 38 -47 57 -75 46 -68 129 -154 228 -237 l82 -69 0
-148 c0 -161 11 -208 79 -352 34 -72 37 -89 19 -89 -26 0 -407 129 -433 146
-11 8 -27 14 -37 14 -10 0 -56 18 -103 40 -47 22 -90 40 -95 40 -5 0 -51 18
-101 40 -51 22 -97 40 -103 40 -6 0 -33 11 -59 24 -26 14 -74 34 -105 45 -53
18 -113 43 -187 75 -16 7 -48 18 -70 24 -22 6 -80 24 -130 40 -140 46 -389
102 -505 112 -58 5 -145 14 -195 19 -113 13 -328 7 -505 -13 -186 -21 -235
-32 -455 -101 -62 -20 -217 -86 -245 -105 -14 -10 -47 -29 -75 -43 -61 -31
-234 -147 -299 -202 -234 -196 -460 -514 -581 -816 -21 -52 -41 -101 -45 -109
-23 -45 -93 -282 -116 -390 -49 -230 -64 -361 -64 -566 0 -193 22 -400 55
-519 7 -27 19 -79 25 -115 16 -98 151 -520 200 -625 45 -97 104 -234 120 -281
10 -28 32 -75 49 -105 17 -31 31 -61 31 -68 0 -7 13 -41 29 -75 16 -33 46
-106 66 -161 20 -55 40 -109 44 -120 14 -35 43 -119 51 -150 5 -16 15 -50 23
-75 38 -114 89 -302 102 -375 8 -44 21 -107 29 -140 33 -141 38 -178 68 -520
14 -170 14 -475 -2 -645 -6 -69 -15 -172 -20 -230 -11 -135 -46 -325 -112
-608 -40 -172 -45 -166 130 -170 89 -3 155 2 217 13 50 9 115 22 145 27 30 6
60 15 67 20 7 5 17 7 23 3 6 -4 16 -2 23 3 7 5 50 22 97 37 91 29 90 29 197
74 39 17 77 31 83 31 7 0 33 11 59 25 25 13 71 36 101 49 30 14 96 48 145 75
50 27 115 63 146 80 31 16 92 54 135 83 43 30 100 66 126 81 26 15 82 55 125
90 43 34 105 82 139 107 105 76 244 199 358 314 103 105 292 330 317 379 7 12
24 36 38 54 59 73 76 99 99 147 12 27 38 71 56 96 19 26 37 57 41 68 3 12 24
52 46 89 21 37 39 73 39 79 0 6 6 17 14 23 13 11 66 110 66 124 0 3 16 33 35
67 19 34 35 66 35 71 0 5 18 46 39 92 54 114 104 228 141 322 18 44 38 94 45
110 31 71 68 162 75 180 4 11 26 67 49 125 23 58 48 125 55 150 8 25 28 79 44
120 36 86 95 241 110 285 6 17 36 91 67 165 32 74 68 162 81 195 13 33 49 110
80 170 31 61 68 133 82 160 51 103 251 388 252 358 0 -13 -35 -78 -56 -103
-16 -20 -97 -181 -122 -245 -11 -28 -30 -74 -41 -103 -25 -61 -54 -195 -76
-341 -28 -189 13 -464 96 -639 42 -89 130 -215 188 -269 75 -71 188 -142 285
-180 55 -21 101 -43 103 -49 3 -10 1 -12 -157 -74 -58 -22 -129 -52 -158 -65
-29 -14 -56 -25 -61 -25 -13 0 -216 -98 -326 -158 -112 -61 -235 -156 -235
-181 0 -9 15 -31 32 -47 32 -30 112 -84 123 -84 3 0 29 -17 58 -37 29 -21 66
-45 82 -54 17 -9 84 -46 151 -82 67 -36 133 -69 147 -72 14 -4 31 -13 38 -21
6 -8 16 -14 21 -14 9 0 139 -54 243 -100 117 -53 183 -80 193 -80 7 0 20 -4
30 -9 43 -22 296 -100 324 -101 29 0 32 -22 7 -41 -13 -10 -31 -19 -39 -19
-13 0 -75 -30 -295 -146 -38 -20 -88 -49 -110 -64 -22 -14 -48 -30 -58 -33
-36 -13 -468 -300 -614 -407 -56 -41 -127 -93 -159 -115 -54 -38 -173 -130
-275 -213 -26 -20 -82 -64 -125 -97 -42 -33 -125 -102 -183 -153 -58 -51 -119
-104 -136 -117 -217 -174 -533 -487 -612 -605 -48 -73 -57 -104 -41 -137 20
-43 143 -103 253 -124 22 -4 87 -17 145 -29 169 -36 188 -39 335 -55 77 -8
181 -19 230 -25 258 -29 523 -43 765 -42 400 2 750 19 971 47 64 8 160 19 214
25 53 5 107 13 121 16 32 8 30 -4 -8 -63 -18 -27 -49 -75 -68 -107 -19 -31
-50 -81 -68 -109 -50 -80 -240 -469 -287 -587 -10 -25 -28 -67 -40 -95 -12
-27 -25 -61 -29 -75 -4 -14 -25 -68 -46 -120 -86 -215 -174 -544 -172 -645 2
-89 18 -99 147 -92 56 3 121 10 145 16 25 5 90 17 145 26 131 21 455 99 575
137 52 17 117 37 145 44 46 12 239 78 345 118 25 9 68 25 95 35 28 11 79 33
115 50 36 17 70 31 76 31 6 0 83 36 172 80 88 44 164 80 169 80 4 0 31 16 58
36 28 19 68 43 90 53 39 17 275 165 325 203 184 140 241 190 360 309 110 110
268 321 325 432 17 34 41 78 53 97 12 19 22 41 22 48 0 7 9 32 21 55 45 92 99
265 124 399 19 106 23 430 5 528 -22 123 -80 310 -120 385 -15 28 -30 62 -34
78 -3 15 -21 47 -39 71 -17 24 -60 84 -95 134 -35 50 -93 120 -129 157 -53 54
-63 68 -53 80 7 8 17 15 22 15 6 0 24 7 41 15 18 8 69 28 114 44 45 17 101 40
124 52 23 11 58 27 78 34 38 13 205 90 231 105 14 9 82 45 230 121 36 19 90
50 120 70 30 19 87 55 125 79 225 140 319 209 563 410 155 128 462 433 559
555 181 228 232 295 278 370 27 44 59 93 73 109 13 16 34 50 46 75 13 25 36
69 53 96 56 92 87 150 109 200 41 97 86 185 94 185 4 0 30 -18 56 -40 27 -22
54 -40 60 -40 6 0 42 -16 80 -36 73 -38 215 -86 327 -110 102 -21 316 -19 408
5 82 21 187 59 240 86 139 72 284 215 339 334 8 19 7 27 -6 42 -14 16 -32 19
-113 19 -81 0 -190 14 -361 45 -54 10 -219 66 -225 76 -4 5 -13 9 -22 9 -22 0
-206 102 -283 157 -80 56 -240 185 -265 213 -18 20 -18 26 3 208 29 250 34
390 20 596 -6 94 -12 194 -12 221 l-1 50 55 11 c111 22 367 125 385 154 4 7
32 27 62 47 111 70 284 258 354 383 14 25 30 54 36 65 36 63 99 228 107 275 3
19 13 96 23 170 l19 135 36 17 c34 16 78 70 113 138 10 19 15 59 15 118 0 57
5 103 15 125 30 72 14 334 -40 652 -9 50 -22 133 -29 185 -16 107 -26 159 -56
275 -11 44 -20 92 -20 106 0 14 -6 45 -14 70 -8 24 -29 107 -46 184 -18 77
-39 154 -46 172 -8 17 -14 35 -14 41 0 5 -12 30 -26 56 -48 85 -118 101 -235
52 -13 -6 -18 14 -34 136 -32 257 -35 723 -5 973 5 44 14 130 19 190 5 61 14
123 20 139 11 28 11 28 38 11 137 -90 269 37 361 350 45 152 69 287 104 585 7
58 12 231 13 390 0 274 -1 288 -24 353 -14 43 -21 80 -17 98 7 39 -10 127 -32
157 -9 14 -22 33 -28 43 -26 45 -47 59 -87 59 -38 0 -46 -6 -116 -79 -108
-111 -202 -265 -295 -483 -8 -21 -20 -38 -25 -38 -5 0 -24 19 -42 43 -120 157
-294 283 -479 347 -52 18 -102 36 -110 40 -24 13 -233 39 -360 45 -63 4 -171
1 -240 -5 -270 -25 -262 -25 -287 8 -29 40 -18 48 77 57 41 4 125 16 185 27
61 10 142 23 180 29 91 13 151 26 255 56 47 14 104 29 127 34 23 4 50 13 60
19 10 5 38 16 62 24 43 14 47 14 112 -14 36 -16 91 -32 120 -36 49 -6 58 -4
86 20 40 34 57 100 57 231 2 233 -65 424 -224 641 -77 104 -287 319 -355 362
-22 14 -53 38 -70 53 -16 15 -49 37 -73 49 -23 12 -45 26 -48 31 -3 5 -26 21
-52 34 -26 14 -65 36 -87 48 -22 12 -78 37 -125 56 -47 19 -95 40 -108 48
l-22 14 19 37 c11 20 37 73 59 117 l40 80 134 -2 c192 -3 598 15 702 31 83 13
93 12 134 -5 24 -10 50 -19 57 -19 8 0 35 -11 60 -25 26 -13 62 -27 81 -31 19
-3 37 -10 40 -15 3 -5 33 -9 68 -9 92 0 121 23 152 119 33 101 43 230 28 350
-14 112 -61 298 -82 324 -5 7 -17 35 -28 62 -23 63 -92 196 -133 256 -17 26
-31 49 -31 52 0 8 -91 141 -122 177 -16 19 -58 72 -94 117 -35 45 -102 122
-149 171 -47 49 -85 94 -85 98 0 5 35 47 77 94 72 81 213 262 213 275 0 3 10
22 23 43 28 46 89 180 112 247 33 99 45 212 33 317 -10 93 -12 98 -49 134 -38
37 -42 38 -107 37 -60 0 -119 -13 -207 -44 -93 -34 -101 -34 -172 -9 -37 13
-79 31 -93 40 -14 9 -54 31 -90 50 -36 18 -82 44 -102 57 -21 13 -57 30 -80
39 -24 10 -49 22 -56 29 -15 13 -65 151 -83 229 -6 28 -17 65 -24 81 -7 17
-19 48 -27 70 -50 131 -104 265 -120 297 -10 21 -18 44 -18 51 0 8 33 36 73
62 232 154 439 331 610 522 116 130 254 312 292 385 15 29 35 62 44 73 21 25
108 203 149 305 82 205 126 365 148 535 47 360 -5 629 -126 658 -35 9 -107
-12 -172 -50 -31 -18 -61 -33 -67 -33 -15 0 -14 27 4 87 18 60 35 249 35 388
0 181 -22 268 -85 343 -26 31 -167 142 -181 142 -4 0 -21 10 -38 23 -27 21
-64 41 -201 110 -69 35 -203 96 -235 108 -68 25 -96 58 -71 84 38 41 178 353
231 515 69 216 84 276 124 510 36 207 49 377 45 578 l-4 175 60 13 c211 46
427 120 531 182 163 98 284 226 284 301 0 11 7 46 16 78 48 175 47 465 -1 693
-14 69 -35 145 -46 170 -11 25 -30 65 -42 90 -62 135 -200 240 -297 227 -46
-6 -221 -90 -264 -127 -17 -14 -60 -48 -96 -75 -100 -76 -282 -237 -415 -367
-65 -65 -123 -118 -127 -118 -4 0 -20 18 -35 41 -25 39 -27 48 -35 219 -4 99
-14 230 -23 292 -8 62 -22 172 -30 243 -15 122 -37 256 -55 335 -4 19 -16 76
-25 125 -10 50 -32 146 -50 215 -18 69 -36 141 -40 160 -3 19 -10 46 -15 60
-4 14 -20 70 -35 125 -32 116 -52 182 -65 210 -5 11 -25 65 -44 120 -36 107
-54 152 -121 310 -24 55 -46 111 -50 125 -4 14 -13 35 -21 47 -8 13 -37 67
-65 120 -109 210 -249 398 -348 466 -40 28 -54 32 -111 32 -115 0 -233 -77
-358 -233 -72 -92 -69 -88 -156 -218 -32 -49 -66 -100 -75 -114 -22 -32 -113
-222 -136 -280 -9 -25 -21 -50 -26 -56 -10 -12 -38 -111 -50 -178 -8 -46 -6
-70 21 -266 5 -36 9 -68 10 -71 0 -6 -60 -57 -251 -211 -67 -55 -233 -217
-307 -301 l-51 -57 -63 29 c-79 36 -105 45 -198 68 -128 31 -316 21 -418 -23
-68 -29 -76 -24 -136 94 -57 110 -159 270 -257 402 -96 128 -357 380 -497 478
-104 73 -130 91 -190 129 -59 37 -106 63 -227 126 -16 9 -48 23 -70 32 -22 9
-62 27 -90 40 -98 47 -193 83 -286 110 -51 14 -107 32 -124 40 -28 12 -105 29
-170 39 -16 2 -77 14 -135 25 -58 12 -152 28 -208 36 -77 10 -110 19 -125 33
-68 63 -318 222 -447 284 -134 63 -168 77 -245 99 -109 30 -178 33 -240 11z
m220 -92 c143 -38 436 -195 598 -320 32 -25 75 -57 96 -72 54 -39 200 -195
218 -233 15 -31 14 -35 -13 -85 -38 -69 -174 -196 -278 -260 -136 -81 -284
-143 -415 -171 -25 -6 -80 -17 -121 -26 -112 -24 -457 -23 -565 1 -44 10 -96
22 -115 26 -102 22 -182 67 -200 111 -36 86 84 430 234 670 87 141 118 180
198 259 105 103 139 120 238 116 41 -2 98 -9 125 -16z m5334 -74 c51 -26 146
-122 188 -190 14 -22 34 -50 43 -61 24 -26 249 -475 266 -530 3 -11 24 -67 46
-125 23 -58 44 -114 48 -125 4 -11 17 -45 28 -75 11 -30 30 -89 42 -130 32
-117 52 -183 62 -210 6 -14 14 -45 18 -70 5 -25 23 -94 39 -155 17 -60 38
-148 45 -195 8 -47 23 -123 34 -170 32 -144 83 -489 102 -700 5 -63 12 -136
14 -162 6 -61 -8 -63 -67 -9 -42 38 -174 141 -182 141 -2 0 -23 13 -47 29 -47
32 -203 110 -258 130 -19 7 -65 24 -101 37 -36 13 -97 28 -135 34 -38 6 -122
19 -187 28 l-119 18 -24 48 c-13 27 -31 58 -39 69 -23 33 -18 88 14 158 16 35
32 80 36 99 4 19 21 76 37 125 34 102 90 372 109 518 14 116 7 230 -21 319
-51 166 -175 180 -440 50 -74 -37 -164 -86 -199 -109 -66 -45 -85 -51 -97 -32
-4 6 -12 57 -19 113 -13 108 -4 204 27 276 33 77 61 137 83 180 13 25 39 74
58 111 18 36 43 78 54 95 11 16 40 61 64 99 106 170 272 343 359 375 69 24 62
24 119 -4z m-4349 -365 c125 -23 343 -72 361 -81 11 -6 54 -20 96 -31 42 -11
104 -33 137 -48 34 -16 72 -32 86 -35 53 -14 332 -152 402 -198 31 -21 60 -38
63 -38 11 0 137 -92 256 -186 121 -97 329 -305 382 -384 17 -25 49 -67 71 -94
63 -76 225 -370 226 -408 0 -10 -17 -29 -37 -42 -40 -25 -157 -143 -186 -186
-57 -84 -68 -104 -83 -142 -64 -174 -77 -301 -45 -456 23 -109 32 -134 92
-256 21 -43 37 -82 34 -86 -3 -5 -26 -21 -53 -36 -106 -62 -178 -142 -266
-295 -69 -120 -99 -315 -76 -488 14 -103 23 -135 63 -226 77 -173 240 -334
412 -408 78 -33 80 -35 83 -71 2 -21 -4 -59 -12 -84 -26 -77 -63 -204 -71
-242 -4 -19 -18 -57 -30 -85 -13 -27 -32 -71 -43 -97 -12 -27 -26 -48 -32 -48
-7 0 -37 8 -68 17 -112 32 -373 20 -467 -22 -16 -7 -46 -19 -66 -25 -73 -22
-204 -128 -279 -225 -85 -111 -140 -273 -140 -413 0 -91 40 -227 87 -295 l26
-38 -24 -24 c-56 -54 -362 -241 -509 -312 -240 -114 -583 -222 -805 -253 -94
-13 -479 -13 -585 1 -109 13 -386 75 -425 94 -16 8 -43 17 -60 20 -56 12 -287
106 -355 145 -25 15 -70 39 -100 53 -69 34 -209 116 -243 142 -14 11 -49 36
-77 55 -193 131 -463 393 -607 590 -51 69 -103 139 -116 155 -23 29 -117 182
-117 190 0 2 -14 24 -30 49 -17 25 -36 60 -42 78 -6 18 -19 45 -29 59 -10 14
-27 50 -39 80 -12 30 -30 73 -42 97 -74 154 -189 555 -209 727 -4 39 -15 131
-23 205 -40 347 -2 919 80 1205 7 28 19 75 24 105 13 69 104 339 136 402 13
26 24 55 24 64 0 10 6 25 13 33 7 9 24 41 37 71 27 62 121 239 150 285 11 17
24 39 29 50 12 26 156 231 228 324 118 151 344 371 518 502 145 109 172 129
180 129 4 0 22 11 39 24 17 13 49 32 71 43 22 11 66 35 98 52 32 17 62 29 66
26 5 -2 2 -23 -5 -45 -18 -53 -34 -159 -34 -234 0 -58 0 -58 58 -115 64 -61
108 -80 292 -123 83 -20 123 -23 325 -23 186 0 246 4 315 18 122 27 270 66
305 82 17 7 41 18 55 24 64 28 206 111 257 151 151 118 261 248 271 322 6 49
-30 125 -89 186 -21 22 -35 43 -32 46 8 8 48 7 103 -3z m4227 -746 c27 -19 50
-90 58 -180 7 -80 -15 -288 -44 -410 -10 -44 -22 -98 -25 -120 -24 -140 -165
-534 -241 -675 -8 -14 -28 -53 -45 -87 -101 -207 -246 -370 -390 -440 -224
-109 -484 7 -671 297 -30 47 -60 101 -68 120 -7 19 -22 60 -33 90 -14 35 -21
79 -21 120 0 56 6 78 42 155 24 49 56 106 72 126 16 20 29 39 29 43 0 6 33 53
88 127 45 59 231 250 305 313 120 102 250 206 257 206 4 0 27 17 51 38 63 54
263 175 359 217 19 8 42 19 50 25 27 16 134 47 170 49 20 0 45 -6 57 -14z
m-1586 -760 c114 -32 135 -39 171 -57 48 -23 54 -35 31 -61 -27 -30 -119 -199
-149 -273 -51 -128 -21 -281 102 -509 33 -60 244 -273 294 -296 19 -9 54 -26
78 -38 141 -68 346 -46 492 53 56 38 159 142 202 204 47 67 126 193 138 220
14 34 50 42 175 42 201 0 452 -43 551 -95 16 -8 35 -15 43 -15 24 0 247 -126
313 -177 167 -129 334 -320 418 -478 17 -33 38 -71 46 -85 104 -183 192 -490
228 -800 24 -203 6 -591 -35 -742 -5 -20 -14 -67 -19 -105 -5 -37 -21 -108
-35 -158 -15 -49 -32 -112 -39 -140 -29 -111 -121 -334 -187 -455 -11 -19 -35
-65 -54 -102 -19 -36 -39 -69 -45 -73 -5 -3 -31 -38 -56 -78 -191 -295 -503
-531 -884 -667 -19 -7 -51 -18 -70 -25 -45 -16 -177 -43 -305 -61 -182 -25
-557 -9 -700 31 -27 8 -72 16 -98 19 -27 3 -95 22 -151 41 -57 19 -109 35
-117 35 -8 0 -43 14 -79 31 -36 17 -91 39 -124 50 -76 26 -269 126 -366 190
-30 20 -69 44 -87 52 -47 24 -344 254 -358 277 -11 19 -25 10 -25 -15 0 -14
12 -43 26 -65 25 -37 25 -41 11 -62 -60 -86 -160 -168 -267 -219 -160 -77
-191 -83 -374 -77 -139 5 -142 6 -221 44 -86 41 -165 95 -206 140 -29 33 -59
75 -59 85 0 4 32 30 71 59 l72 52 26 -19 c57 -42 121 -65 197 -70 96 -8 98 11
6 43 -75 27 -136 68 -210 143 -110 108 -146 253 -106 426 62 267 267 442 565
484 71 10 105 10 204 -3 65 -8 123 -20 129 -26 17 -17 62 -11 83 13 37 40 92
167 133 307 15 52 39 133 54 179 14 47 26 99 26 117 0 18 5 45 12 59 10 22 8
28 -10 48 -12 12 -43 28 -69 36 -66 17 -86 27 -179 88 -102 66 -183 152 -225
240 -18 38 -38 75 -45 83 -16 21 -42 132 -50 216 -10 109 12 265 50 354 60
140 177 274 292 334 53 28 217 76 258 76 30 0 44 18 25 31 -8 6 -58 8 -112 7
l-97 -3 -41 64 c-75 119 -128 336 -114 466 7 70 31 169 49 205 7 14 21 42 32
63 24 51 96 144 142 185 80 71 251 152 347 165 77 10 225 6 276 -8z m1479
-595 c8 -15 6 -21 -10 -30 -27 -15 -38 -6 -32 25 5 30 27 33 42 5z m2356 -112
c49 -35 119 -131 111 -152 -3 -8 -31 -24 -63 -35 -31 -12 -69 -30 -83 -40 -14
-10 -55 -34 -91 -53 -82 -43 -155 -97 -247 -183 -69 -63 -89 -95 -60 -95 6 0
46 23 87 52 68 46 171 108 319 190 86 48 172 79 187 67 20 -16 73 -277 74
-359 0 -37 -14 -60 -37 -60 -20 0 -229 -103 -293 -144 -114 -73 -180 -127
-180 -146 0 -28 11 -25 91 20 39 22 75 40 81 40 5 0 22 8 36 19 15 10 56 31
92 46 36 15 88 37 116 50 92 42 89 44 87 -70 -2 -103 -36 -273 -66 -332 -16
-31 -83 -94 -138 -130 -66 -43 -210 -112 -224 -107 -7 3 -23 -4 -34 -15 -11
-11 -37 -23 -58 -27 -21 -3 -47 -12 -58 -19 -11 -7 -36 -16 -55 -19 -19 -4
-53 -14 -75 -22 -22 -8 -65 -15 -94 -17 l-55 -2 -18 85 c-10 47 -23 110 -28
140 -11 67 -96 319 -139 413 -17 37 -31 70 -31 73 0 3 -16 30 -35 60 -19 30
-35 58 -35 63 0 5 -7 14 -15 21 -31 26 -14 52 123 188 276 275 447 412 637
511 72 37 107 35 171 -11z m-9879 -2235 c3 -10 21 -51 40 -91 18 -40 33 -77
33 -82 0 -9 67 -151 97 -205 9 -16 29 -54 45 -84 25 -47 164 -260 223 -341 11
-15 68 -85 128 -155 59 -69 107 -131 107 -136 0 -15 -13 -11 -101 26 -46 19
-88 35 -93 35 -6 0 -49 18 -96 41 -369 178 -433 226 -450 346 -15 103 -1 360
32 581 12 80 22 100 35 65z m-507 -788 c74 -14 165 -41 185 -55 6 -4 39 -17
74 -29 36 -13 86 -36 111 -52 26 -16 53 -29 60 -29 7 0 31 -12 54 -26 22 -14
76 -47 120 -72 43 -26 86 -51 95 -57 146 -90 197 -123 256 -166 39 -27 90 -64
115 -81 78 -53 415 -328 520 -423 104 -96 463 -461 519 -528 137 -166 278
-355 385 -513 64 -95 116 -175 116 -178 0 -4 19 -40 43 -79 49 -82 167 -320
192 -387 9 -25 21 -54 25 -65 32 -75 70 -179 70 -193 0 -29 66 -213 76 -213 5
1 11 40 14 89 3 62 10 96 22 113 10 13 45 65 78 115 84 127 87 129 202 143
209 24 476 7 633 -43 106 -33 228 -77 240 -86 6 -4 33 -20 60 -36 28 -15 67
-41 88 -58 l38 -30 -58 -60 c-95 -99 -123 -147 -143 -244 -15 -71 -9 -155 16
-228 51 -152 248 -325 474 -417 19 -8 49 -20 65 -27 53 -22 119 -40 147 -40
15 0 29 -4 32 -9 3 -4 22 -11 43 -14 21 -3 76 -13 123 -21 70 -12 192 -23 282
-26 15 0 88 -95 88 -115 0 -5 6 -16 14 -24 16 -18 146 -270 146 -283 0 -5 11
-25 24 -46 12 -20 26 -48 30 -62 4 -14 20 -52 36 -85 16 -33 43 -98 60 -145
17 -47 39 -101 49 -120 10 -19 24 -62 31 -95 11 -53 18 -75 52 -150 4 -11 15
-49 22 -85 8 -36 19 -78 25 -93 13 -32 15 -77 4 -77 -5 0 -21 21 -36 48 -15
26 -40 63 -55 83 -15 19 -40 53 -57 75 -191 252 -407 442 -626 552 -238 119
-488 155 -814 117 -71 -9 -163 -24 -203 -35 -40 -11 -82 -20 -93 -20 -46 0
-268 -84 -387 -146 -220 -115 -271 -194 -259 -403 7 -134 76 -394 132 -501 7
-14 21 -47 30 -75 10 -27 23 -57 30 -65 7 -8 23 -37 36 -65 12 -27 37 -72 54
-100 159 -250 238 -351 395 -502 71 -70 90 -93 74 -93 -11 0 -40 13 -65 28
-24 16 -53 31 -65 34 -12 3 -67 36 -123 74 -57 38 -117 77 -135 88 -67 40
-312 273 -406 388 -43 52 -130 174 -130 183 0 3 -16 29 -36 57 -19 29 -46 75
-60 103 -14 27 -31 61 -39 75 -22 39 -85 181 -85 192 0 6 -11 36 -24 67 -39
93 -73 217 -116 427 -20 94 -27 170 -34 338 -5 99 -14 128 -33 104 -17 -20
-43 -118 -43 -159 0 -20 -6 -42 -14 -48 -16 -14 -175 -69 -233 -81 -43 -9
-159 -40 -247 -66 -26 -8 -60 -14 -73 -14 -14 0 -42 -4 -62 -9 -43 -11 -183
-35 -346 -58 -99 -14 -195 -17 -545 -17 -435 0 -467 2 -720 46 -63 11 -153 26
-200 33 -47 8 -128 26 -180 40 -52 14 -122 33 -155 41 -62 15 -98 27 -150 49
-16 7 -61 23 -100 35 -38 12 -101 36 -140 53 -38 16 -86 36 -105 45 -191 81
-533 293 -657 406 -77 70 -162 176 -165 206 -5 35 61 74 192 112 19 5 40 13
45 17 6 4 46 16 90 26 44 9 127 30 185 46 58 16 132 31 165 35 33 3 93 15 134
25 41 10 92 19 112 19 21 0 41 5 44 10 3 6 22 10 40 10 19 0 65 4 102 10 395
57 854 85 1237 77 243 -5 345 -13 596 -47 41 -5 102 -12 135 -15 70 -7 124
-18 255 -53 52 -13 113 -28 135 -32 100 -19 227 -63 320 -112 57 -30 250 -110
297 -123 25 -8 56 -18 67 -24 24 -13 61 -14 61 -2 0 9 -11 15 -225 126 -309
160 -329 171 -453 253 -34 23 -67 42 -72 42 -9 0 -56 32 -130 88 -14 11 -63
46 -110 78 -213 145 -509 400 -748 643 -137 138 -208 219 -417 472 -51 61
-121 157 -187 254 -15 22 -41 59 -58 83 -16 23 -30 45 -30 47 0 3 -21 37 -47
77 -26 40 -52 82 -58 93 -33 59 -67 118 -79 138 -34 55 -100 188 -122 247 -14
35 -31 71 -39 80 -7 8 -17 29 -21 45 -4 17 -17 50 -29 75 -13 25 -30 65 -38
90 -9 25 -30 83 -47 130 -18 47 -36 101 -40 120 -5 19 -20 76 -35 125 -29 101
-37 136 -65 285 -26 136 -31 193 -22 255 7 49 8 50 47 56 22 3 42 7 45 8 3 0
39 -6 80 -14z m805 -254 c39 -15 86 -38 105 -50 19 -11 44 -21 54 -21 11 0 38
-8 60 -18 58 -27 138 -56 236 -88 66 -22 100 -41 152 -84 114 -94 178 -144
196 -154 9 -5 60 -37 112 -71 135 -88 151 -97 285 -163 169 -85 255 -122 290
-129 16 -3 43 -12 59 -20 30 -15 93 -35 186 -58 30 -8 91 -23 135 -33 182 -45
247 -52 492 -54 242 -1 325 6 502 43 160 33 316 78 346 100 6 3 26 10 45 14
80 15 424 183 561 272 19 13 40 23 47 23 6 0 49 -38 95 -85 73 -74 96 -91 190
-136 97 -46 107 -53 107 -78 0 -14 -6 -35 -14 -46 -7 -11 -28 -67 -46 -125
-31 -101 -44 -137 -60 -171 -4 -8 -16 -50 -25 -93 -19 -86 -25 -91 -114 -103
-46 -5 -134 -30 -226 -62 -27 -10 -75 -26 -105 -36 -30 -9 -79 -28 -108 -41
-29 -13 -57 -24 -63 -24 -11 0 -38 -13 -174 -84 -100 -52 -124 -66 -240 -143
-84 -56 -102 -69 -233 -170 -169 -131 -411 -392 -582 -627 -30 -41 -58 -76
-63 -76 -8 0 -53 96 -71 155 -16 49 -164 364 -182 385 -7 8 -25 41 -41 72 -33
67 -176 292 -209 328 -12 14 -49 66 -82 115 -33 50 -72 101 -86 114 -14 14
-26 29 -26 34 0 5 -35 48 -78 96 -43 47 -108 123 -145 167 -36 45 -151 164
-254 264 -172 168 -243 232 -495 442 -119 100 -330 255 -452 333 -18 11 -48
32 -67 48 -20 15 -40 27 -45 27 -13 1 -61 40 -49 40 6 0 42 -13 80 -29z m8610
-295 c11 -7 40 -20 65 -30 67 -26 250 -117 256 -127 3 -5 11 -9 18 -9 21 0
155 -84 226 -143 35 -29 78 -75 95 -101 l30 -49 0 -203 c0 -142 -4 -207 -12
-215 -14 -14 -56 -1 -119 38 -132 82 -347 227 -403 272 -62 50 -81 57 -88 34
-9 -26 234 -251 317 -293 21 -11 41 -24 45 -30 3 -5 26 -19 50 -30 24 -11 47
-25 50 -30 4 -6 27 -21 53 -34 84 -43 85 -45 54 -168 -15 -58 -34 -113 -42
-123 -12 -14 -28 -16 -95 -13 -88 4 -116 17 -221 105 -28 24 -54 43 -58 43
-10 0 -126 85 -198 145 -103 86 -153 125 -160 125 -49 1 156 -226 306 -340 47
-36 86 -68 86 -72 0 -11 -51 -17 -230 -28 -91 -6 -198 -13 -237 -16 l-73 -7
-116 119 c-108 110 -215 232 -239 273 -5 9 -27 40 -47 68 -21 28 -38 55 -38
60 0 6 -14 27 -30 48 -28 36 -70 117 -70 136 0 4 28 22 63 39 34 18 69 37 77
44 8 7 36 25 63 40 110 63 347 295 490 479 l27 36 42 -15 c24 -8 52 -21 63
-28z m-3392 -194 c29 -21 62 -44 74 -52 12 -8 54 -38 95 -65 40 -28 98 -64
128 -80 30 -16 78 -44 107 -62 29 -18 56 -33 61 -33 5 0 17 -9 27 -20 17 -18
15 -21 -51 -96 -87 -96 -392 -384 -419 -394 -19 -7 -44 -4 -245 26 -129 19
-464 18 -633 -1 -73 -9 -141 -17 -152 -18 -12 -1 -21 5 -23 17 -6 27 65 245
135 416 29 69 18 65 174 67 79 1 155 7 169 12 14 5 59 22 100 37 110 41 234
122 320 209 41 41 76 75 78 75 1 0 26 -17 55 -38z m661 -380 c85 -39 152 -64
191 -73 22 -6 78 -23 124 -40 46 -16 109 -32 140 -35 31 -3 79 -12 106 -20 66
-18 266 -43 385 -47 163 -7 374 13 530 49 126 29 156 37 225 64 123 48 118 48
157 -17 51 -88 61 -104 99 -163 47 -72 193 -254 286 -357 41 -45 72 -87 68
-92 -9 -16 -67 -29 -235 -51 -85 -11 -209 -32 -275 -46 -66 -14 -147 -29 -180
-34 -33 -5 -100 -20 -150 -33 -100 -27 -158 -41 -225 -56 -41 -8 -259 -81
-336 -112 -29 -12 -35 -10 -70 18 -22 17 -49 33 -60 37 -12 4 -29 15 -39 26
-10 11 -22 20 -26 20 -4 0 -50 27 -101 60 -51 33 -133 80 -183 104 -223 109
-305 146 -319 146 -8 0 -17 4 -21 9 -3 5 -20 13 -38 16 -17 4 -55 18 -84 31
-28 12 -84 32 -125 44 -40 11 -93 28 -118 36 -68 24 -182 54 -208 54 -55 0
-33 31 190 254 122 123 229 224 237 225 8 0 33 -7 55 -17z m-972 -472 c316
-29 585 -86 843 -178 39 -14 101 -36 139 -49 70 -24 92 -33 269 -117 53 -25
99 -46 101 -46 2 0 34 -18 70 -40 36 -22 69 -40 73 -40 5 0 33 -17 64 -38 31
-20 87 -55 124 -77 37 -22 89 -58 115 -80 27 -22 74 -58 106 -80 31 -22 75
-56 98 -75 22 -20 58 -48 79 -64 21 -15 114 -104 207 -197 93 -93 171 -166
174 -161 7 12 -28 84 -61 123 -16 19 -46 57 -66 86 -40 56 -158 170 -293 285
-48 41 -83 79 -82 87 2 8 19 21 38 27 173 59 528 150 700 179 52 9 120 23 150
31 30 7 114 21 185 29 72 8 189 24 260 35 72 11 189 26 260 35 139 16 633 40
700 34 l40 -4 13 -105 c11 -87 20 -120 56 -196 57 -120 141 -246 215 -323 54
-56 60 -66 55 -94 -7 -38 -44 -148 -55 -162 -4 -6 -17 -36 -29 -68 -12 -31
-37 -83 -56 -114 -19 -31 -34 -61 -34 -65 0 -5 -44 -72 -97 -151 -53 -78 -109
-160 -124 -182 -32 -47 -290 -310 -399 -408 -41 -37 -107 -89 -145 -116 -39
-27 -105 -74 -147 -105 -42 -31 -83 -56 -90 -56 -8 0 -38 35 -66 78 -94 142
-121 177 -176 232 -70 68 -92 59 -41 -17 19 -29 35 -55 35 -58 0 -4 15 -27 33
-53 46 -67 135 -235 197 -377 66 -148 90 -208 90 -225 0 -10 4 -21 9 -24 5 -4
17 -32 27 -64 9 -31 21 -61 26 -66 4 -6 8 -20 8 -33 0 -12 6 -40 14 -60 78
-207 182 -754 189 -983 2 -84 2 -85 -21 -82 -13 1 -44 16 -68 33 -55 37 -203
108 -234 111 -44 5 -31 -20 27 -53 32 -18 83 -51 113 -73 30 -23 66 -49 80
-59 206 -143 366 -285 604 -537 159 -168 396 -491 411 -561 4 -15 13 -33 21
-40 22 -18 17 -34 -27 -85 -51 -59 -122 -167 -144 -219 -32 -76 -49 -110 -61
-125 -6 -8 -14 -28 -17 -45 -15 -78 -28 -129 -36 -139 -5 -6 -14 -37 -21 -69
-7 -34 -18 -61 -28 -66 -9 -5 -86 -17 -170 -26 -129 -15 -216 -16 -565 -12
-459 6 -475 7 -867 77 -133 24 -302 67 -410 105 -41 14 -100 34 -130 44 -30
11 -84 32 -120 49 -36 16 -83 35 -105 42 -22 7 -56 23 -75 35 -44 27 -99 47
-112 39 -10 -7 59 -84 76 -84 5 0 17 -7 26 -15 50 -45 382 -186 549 -232 58
-16 106 -34 108 -39 2 -6 -34 -29 -79 -51 -156 -77 -269 -116 -528 -184 -19
-5 -125 -23 -235 -40 -188 -29 -212 -31 -400 -26 -287 7 -478 38 -730 117
-132 41 -183 62 -295 119 -287 147 -460 288 -686 557 -58 70 -134 195 -134
221 0 3 45 -37 100 -88 150 -140 259 -223 339 -259 13 -6 52 -24 85 -41 102
-49 252 -81 391 -83 102 -1 135 3 218 27 118 32 286 111 420 195 54 34 101 62
105 62 4 0 27 16 52 36 25 20 97 75 159 123 305 229 591 539 864 934 54 78
110 169 126 202 86 181 104 226 92 238 -6 6 -20 -7 -37 -34 -15 -24 -33 -53
-41 -64 -7 -11 -47 -71 -89 -133 -41 -63 -94 -138 -117 -167 -23 -29 -73 -97
-112 -151 -191 -268 -578 -658 -814 -821 -42 -29 -79 -49 -84 -44 -4 4 7 41
26 82 33 69 50 118 93 264 26 84 26 388 2 491 -86 355 -220 547 -456 653 -123
56 -271 53 -400 -5 -42 -19 -60 -13 -67 23 -3 15 -17 75 -31 133 -15 58 -32
132 -39 165 -14 67 -49 184 -71 232 -8 17 -14 38 -14 46 0 12 -42 127 -70 192
-5 11 -16 42 -24 68 -9 26 -23 58 -31 71 -9 13 -24 45 -34 72 -21 57 -76 180
-94 209 -6 11 -30 56 -53 100 -23 44 -60 115 -83 158 -23 43 -39 82 -36 87 4
6 21 10 38 10 69 0 251 38 392 82 94 30 204 82 265 127 107 78 175 156 218
250 50 109 31 273 -44 392 -71 114 -272 268 -420 323 -22 7 -64 24 -94 36 -54
22 -148 46 -305 76 -44 9 -156 18 -250 21 -192 6 -342 -10 -509 -52 -101 -26
-258 -87 -287 -111 -25 -22 -38 -17 -119 38 -100 69 -204 119 -350 168 -164
55 -302 73 -537 68 -101 -2 -183 0 -183 3 0 4 33 44 73 90 120 136 318 312
469 417 18 13 57 41 87 62 30 22 59 40 65 40 5 0 17 6 25 14 42 37 410 206
485 222 17 3 36 10 41 14 10 8 72 27 180 55 292 76 686 111 967 85z m4685
-102 c23 -25 52 -149 54 -233 2 -91 -10 -289 -21 -325 -5 -19 -10 -50 -10 -68
0 -40 -27 -139 -41 -147 -11 -8 -68 53 -115 122 -19 29 -39 55 -44 58 -5 3
-32 52 -59 108 -54 112 -77 210 -66 288 8 54 41 93 140 164 85 60 128 69 162
33z m-4977 -1098 c63 -6 138 -17 165 -24 28 -8 71 -17 97 -21 26 -3 84 -20
130 -36 46 -17 99 -35 118 -41 19 -5 42 -16 50 -23 8 -6 40 -25 70 -41 193
-101 320 -267 320 -419 -1 -107 -84 -245 -196 -325 -63 -44 -157 -91 -166 -82
-4 4 -2 27 3 52 6 25 8 69 5 98 -12 106 -123 222 -273 287 -41 18 -77 36 -80
39 -4 3 -16 6 -28 6 -13 0 -42 7 -66 16 -217 77 -560 58 -767 -43 -63 -30
-140 -102 -167 -154 -29 -56 -31 -146 -5 -207 13 -29 20 -56 16 -59 -12 -12
-110 45 -197 114 -110 87 -159 163 -180 276 -13 71 -3 151 28 210 16 32 141
167 154 167 5 0 30 15 56 34 27 19 77 46 113 61 36 15 70 31 75 35 21 16 234
63 335 74 154 16 261 18 390 6z m5 -566 c134 -23 254 -62 310 -100 20 -13 42
-24 49 -24 7 0 21 -9 31 -20 10 -11 25 -22 35 -25 29 -9 77 -87 84 -137 10
-68 -35 -162 -98 -203 -66 -44 -390 -78 -593 -63 -92 6 -217 27 -322 54 -95
24 -214 144 -227 229 -3 25 -4 55 0 68 26 104 190 200 391 226 150 20 196 19
340 -5z m-641 -1249 c296 -44 494 -151 750 -407 82 -81 154 -156 160 -166 6
-11 25 -38 41 -61 117 -163 144 -200 156 -223 8 -14 29 -53 46 -86 18 -33 37
-63 43 -67 24 -15 4 -49 -79 -133 -150 -151 -239 -308 -311 -547 -55 -181 -71
-348 -54 -559 11 -141 24 -194 69 -283 30 -62 32 -68 20 -70 -17 -3 -114 77
-266 223 -81 78 -162 148 -181 157 -18 8 -69 20 -113 27 -137 19 -248 41 -305
60 -30 10 -71 21 -90 25 -33 7 -131 50 -175 78 -88 55 -211 141 -265 186 -129
108 -273 271 -355 401 -16 25 -37 55 -48 66 -38 44 -148 259 -209 409 -104
255 -145 526 -94 623 45 86 304 227 506 277 329 81 549 101 754 70z m4788
-396 c83 -49 258 -135 311 -153 60 -20 109 -20 167 0 141 50 257 67 278 41 22
-26 34 -148 22 -217 -21 -119 -33 -165 -55 -210 -12 -25 -26 -60 -30 -77 -3
-18 -10 -35 -15 -38 -5 -3 -25 -36 -46 -73 -53 -97 -273 -362 -300 -362 -6 0
-54 37 -106 83 -53 45 -117 100 -142 122 l-46 40 -10 115 c-23 269 -55 493
-91 644 -31 131 -26 137 63 85z m-3111 -623 c152 -46 272 -151 359 -311 131
-243 164 -588 79 -853 -34 -107 -37 -114 -99 -222 -46 -79 -183 -226 -235
-252 -16 -8 -48 -25 -70 -38 -48 -28 -134 -55 -231 -75 -94 -18 -206 -10 -313
22 -78 24 -88 30 -163 104 -136 135 -178 261 -178 533 1 170 9 239 44 356 9
30 22 73 27 95 15 57 113 256 143 293 14 16 26 34 26 40 0 6 43 55 95 110 84
88 106 105 188 146 51 25 110 50 132 55 60 14 144 12 196 -3z m-3691 -947 c41
-10 86 -23 100 -28 14 -5 52 -14 85 -21 73 -14 203 -48 230 -59 11 -5 47 -14
80 -21 58 -12 88 -19 220 -56 54 -15 211 -56 385 -100 96 -25 197 -54 264 -75
33 -10 68 -19 78 -19 10 0 50 -11 90 -24 40 -13 96 -29 123 -35 65 -16 124
-31 155 -41 42 -13 162 -47 230 -65 36 -10 76 -21 90 -25 14 -5 57 -18 97 -29
40 -12 74 -25 77 -29 2 -4 1 -156 -3 -337 -10 -409 5 -804 49 -1315 6 -63 15
-178 20 -255 9 -139 24 -234 42 -267 12 -25 50 -22 116 9 31 14 90 39 132 53
41 15 107 40 145 55 39 15 104 41 145 57 41 16 84 33 95 38 11 5 31 12 45 15
14 4 39 13 55 20 17 7 53 20 80 30 28 9 69 25 92 36 24 10 46 19 49 19 3 0 20
7 37 14 18 8 57 24 87 34 30 11 75 27 99 36 52 20 57 17 108 -63 20 -31 51
-78 68 -106 122 -190 206 -317 278 -424 21 -31 49 -76 63 -101 66 -117 130
-200 155 -200 11 0 59 37 107 83 122 115 189 169 196 158 3 -5 -5 -33 -19 -63
-14 -29 -25 -64 -25 -77 0 -21 3 -23 30 -17 44 8 39 -12 -22 -100 -70 -100
-60 -111 59 -60 48 21 99 40 112 43 24 6 24 5 18 -51 -3 -32 -12 -66 -19 -76
-39 -54 -182 -226 -192 -231 -6 -4 -57 -14 -113 -23 -57 -9 -113 -21 -125 -26
-36 -15 -223 -50 -266 -50 -32 0 -43 5 -58 28 -10 15 -49 61 -88 103 -39 42
-93 104 -121 139 -27 34 -108 129 -179 211 -144 166 -152 170 -233 130 -21
-11 -94 -47 -162 -80 -67 -34 -135 -69 -150 -79 -14 -10 -53 -31 -86 -46 -33
-16 -72 -39 -87 -52 -16 -12 -38 -26 -50 -30 -13 -4 -78 -42 -146 -85 -67 -44
-126 -79 -131 -79 -5 0 -32 -18 -60 -40 -28 -22 -53 -40 -56 -40 -3 0 -33 -18
-65 -40 -32 -22 -61 -40 -64 -40 -3 0 -32 -18 -64 -40 l-58 -40 -130 10 c-71
6 -160 16 -199 21 -38 6 -211 13 -384 15 -172 2 -315 5 -317 7 -2 2 12 41 31
88 19 46 35 89 35 96 0 7 18 61 39 120 22 59 49 142 61 183 12 41 25 86 30
100 15 44 39 133 56 205 9 39 26 106 39 150 13 44 26 107 30 139 4 33 10 69
15 80 12 33 58 265 65 331 4 33 17 114 30 180 59 294 94 896 61 1024 -34 124
-84 123 -246 -4 -179 -140 -456 -452 -635 -714 -79 -117 -179 -274 -221 -351
-26 -47 -53 -92 -59 -100 -7 -8 -54 -98 -104 -200 -51 -102 -107 -214 -124
-249 -18 -36 -36 -64 -42 -63 -11 1 -59 214 -75 337 -10 73 -40 269 -70 465
-6 41 -15 111 -20 155 -14 126 -49 381 -59 427 -6 24 -12 90 -16 148 -5 104
-16 217 -35 380 -33 275 -68 867 -53 893 5 9 49 2 153 -24z m1967 -250 c44
-16 161 -40 241 -49 89 -9 94 -14 160 -140 27 -52 58 -109 68 -125 140 -221
330 -417 534 -549 19 -12 58 -39 87 -59 28 -20 78 -49 110 -65 32 -16 82 -41
110 -56 29 -14 57 -26 63 -26 5 0 49 -18 96 -40 48 -22 97 -40 110 -40 12 0
46 -8 76 -19 94 -33 163 -51 244 -62 43 -6 90 -13 104 -15 134 -23 521 -32
634 -15 34 5 99 15 146 21 47 6 110 16 140 22 94 18 357 97 427 129 24 10 47
19 52 19 8 0 159 67 204 91 10 6 45 24 79 41 l60 30 157 -26 c198 -33 378 -56
442 -56 63 0 63 -6 0 -130 l-48 -95 -129 3 c-197 6 -441 -21 -630 -67 -88 -22
-175 -42 -194 -46 -19 -4 -75 -20 -125 -36 -49 -16 -119 -39 -155 -51 -36 -11
-69 -24 -75 -28 -5 -5 -33 -15 -61 -23 -28 -8 -60 -19 -70 -25 -11 -5 -80 -40
-154 -77 -297 -148 -450 -268 -512 -401 -34 -74 -47 -162 -28 -202 33 -69 55
-110 76 -139 33 -44 30 -53 -19 -53 -62 0 -300 29 -307 38 -22 26 -88 121
-102 148 -36 68 -90 145 -104 151 -9 3 -62 -13 -119 -36 -57 -22 -110 -41
-119 -41 -8 0 -17 -4 -20 -9 -3 -4 -25 -14 -48 -20 -40 -11 -48 -10 -113 20
-38 17 -88 43 -110 58 -22 14 -56 34 -75 44 -19 10 -84 56 -145 102 -60 47
-142 110 -181 140 -83 64 -316 301 -341 348 -16 29 -18 69 -18 467 0 239 4
476 9 526 l8 92 -26 17 c-15 10 -57 26 -94 37 -37 10 -89 25 -117 34 -27 8
-92 26 -144 39 -52 14 -100 30 -108 36 -14 12 -19 159 -6 172 9 10 27 9 60 -4z
m5795 -295 c10 -16 31 -84 48 -150 67 -259 41 -531 -51 -542 -13 -1 -55 8 -94
22 -130 46 -210 77 -218 85 -4 4 -3 28 3 52 24 104 51 196 69 233 107 228 128
266 168 308 33 35 51 33 75 -8z m-7872 -1005 c5 -30 13 -83 20 -119 6 -36 15
-108 20 -160 9 -99 17 -162 51 -368 24 -145 21 -166 -17 -131 -31 28 -114 151
-114 168 0 6 -11 33 -24 60 -63 123 -72 340 -21 477 14 38 29 78 34 89 5 11
12 29 15 39 10 30 26 6 36 -55z m6349 -4 c52 -9 108 -22 125 -30 17 -8 58 -24
91 -36 100 -37 159 -72 423 -248 19 -13 97 -84 173 -158 172 -168 248 -278
333 -478 45 -107 67 -311 43 -410 l-14 -60 -44 1 c-26 0 -67 11 -101 27 -70
33 -91 33 -181 3 -153 -53 -357 -107 -452 -121 -55 -9 -107 -17 -115 -20 -31
-10 -238 -35 -326 -40 l-92 -5 -35 39 c-19 22 -40 48 -46 59 -18 34 -46 36
-94 7 -24 -14 -52 -34 -62 -45 -48 -53 -73 -60 -185 -50 -167 15 -248 31 -269
55 -19 21 -111 153 -111 160 0 5 -41 65 -69 101 -12 16 -32 45 -45 64 -101
157 -160 230 -187 230 -10 0 -87 -65 -173 -145 -85 -80 -161 -145 -169 -145
-24 0 -116 60 -217 141 -110 89 -143 122 -199 203 -32 46 -41 69 -41 101 0 96
106 224 281 340 54 36 100 65 103 65 3 0 31 16 63 35 32 19 76 40 98 46 22 6
47 17 55 24 8 7 38 20 65 30 28 10 64 24 82 31 17 8 35 14 40 14 4 0 21 7 38
16 27 14 108 39 210 65 22 6 49 15 60 19 26 12 76 24 215 55 63 14 132 30 152
36 20 5 88 14 150 20 62 5 118 11 123 13 30 10 223 4 304 -9z m-5347 -277 c79
-106 259 -635 303 -893 47 -272 55 -324 55 -356 0 -36 -26 -136 -40 -154 -4
-5 -11 -29 -15 -52 -11 -68 -103 -339 -145 -430 -11 -24 -20 -49 -20 -56 0 -7
-9 -31 -20 -52 -19 -36 -53 -127 -97 -258 -39 -115 37 -54 112 91 21 40 45 77
54 81 27 15 191 31 311 31 63 0 196 -7 295 -15 99 -8 250 -19 335 -25 85 -6
207 -15 270 -20 63 -6 153 -13 200 -16 136 -10 655 -6 775 6 61 6 169 15 240
20 129 9 335 38 430 60 28 6 91 18 140 25 50 8 148 28 218 44 71 17 143 31
161 31 45 0 196 -56 337 -124 148 -71 200 -86 237 -65 25 14 27 19 26 85 -1
70 -28 156 -62 197 -21 24 -10 31 73 50 39 9 138 32 220 52 83 20 185 43 228
51 43 8 106 24 139 35 68 23 116 20 183 -11 22 -10 65 -28 95 -41 30 -12 66
-30 80 -40 14 -9 54 -32 88 -50 35 -19 79 -42 97 -52 18 -10 55 -20 82 -23 44
-5 50 -3 77 25 27 28 28 34 24 88 -3 32 -16 85 -27 118 -12 33 -24 67 -27 77
-4 10 1 20 13 26 34 18 253 34 358 27 55 -5 118 -9 140 -10 166 -10 304 -48
460 -128 93 -47 281 -214 330 -292 11 -16 29 -42 41 -57 12 -15 38 -60 57
-100 61 -128 94 -125 63 6 -19 84 -15 107 49 241 23 50 44 95 46 100 6 16 117
198 134 219 8 11 18 17 21 13 4 -4 2 -12 -4 -19 -69 -85 -195 -448 -156 -448
13 0 58 75 85 140 13 30 33 71 45 91 13 20 29 52 37 71 12 29 51 84 128 181
24 30 39 12 39 -48 0 -43 -4 -56 -19 -64 -19 -11 -151 -200 -151 -217 0 -5
-17 -54 -39 -109 -36 -92 -71 -221 -71 -259 0 -37 27 -12 50 47 13 34 32 74
42 89 10 14 18 31 18 38 0 27 156 300 179 315 6 3 16 -5 23 -17 23 -40 16
-493 -11 -723 -12 -104 -26 -203 -31 -219 -5 -15 -7 -32 -4 -37 8 -13 -23
-160 -47 -226 -12 -32 -23 -69 -26 -83 -9 -47 -108 -233 -135 -253 -34 -25
-61 -18 -116 29 l-43 36 3 117 c2 110 -5 153 -22 134 -16 -17 -65 -273 -81
-423 -5 -47 -13 -121 -19 -165 -27 -223 -43 -775 -26 -938 32 -307 52 -454 77
-577 17 -80 33 -160 37 -179 4 -19 13 -36 21 -39 12 -4 13 18 6 139 -12 216
-13 205 24 243 36 38 88 54 107 34 28 -30 67 -119 85 -198 10 -47 23 -94 28
-105 12 -25 35 -125 56 -240 9 -49 22 -112 30 -140 7 -27 20 -95 28 -150 9
-55 23 -143 32 -195 51 -299 80 -620 56 -634 -13 -9 -48 35 -86 109 -20 39
-53 102 -74 140 -20 39 -49 93 -64 120 -14 28 -33 59 -41 70 -14 19 -15 19
-22 2 -21 -56 128 -400 216 -500 l51 -56 -3 -73 c-3 -64 -5 -73 -22 -73 -19 0
-82 94 -178 265 -23 41 -52 89 -65 106 -13 17 -23 36 -23 41 0 14 -49 101 -61
109 -31 19 -8 -105 31 -173 11 -18 24 -52 30 -75 6 -24 19 -55 30 -69 10 -14
28 -50 41 -80 13 -30 49 -88 80 -129 31 -41 55 -77 52 -80 -7 -7 -92 90 -99
115 -4 11 -17 34 -30 50 -25 34 -139 251 -159 305 -7 19 -23 60 -35 90 -61
153 -101 306 -89 338 12 31 11 89 -1 97 -5 3 -16 -8 -25 -24 -8 -17 -28 -50
-45 -74 -16 -25 -30 -49 -30 -53 0 -41 -243 -308 -335 -368 -183 -119 -324
-159 -555 -160 -111 0 -172 5 -260 23 -135 26 -252 57 -297 77 -17 8 -36 14
-42 14 -20 0 -165 53 -198 73 -36 21 -35 37 2 37 26 0 85 50 85 73 0 8 -9 26
-20 40 -24 30 -25 41 -5 57 23 19 18 58 -12 86 -24 23 -25 25 -10 42 25 28 21
69 -9 97 -18 17 -25 31 -21 46 9 32 -9 66 -43 84 -29 15 -31 19 -25 58 6 37 3
45 -22 68 -21 20 -42 28 -85 32 -33 3 -73 15 -100 31 -65 37 -406 206 -417
206 -6 0 -41 15 -78 34 -76 37 -312 120 -388 135 -27 6 -79 18 -115 26 -88 22
-299 32 -329 15 -13 -6 -19 -15 -15 -19 5 -4 61 -16 124 -25 63 -10 147 -26
185 -36 176 -47 257 -71 292 -85 21 -9 81 -32 133 -52 87 -32 404 -179 440
-203 44 -29 238 -120 258 -120 20 0 22 -5 22 -46 0 -38 5 -50 31 -74 26 -23
30 -33 25 -56 -6 -21 -1 -33 20 -55 22 -23 25 -32 16 -41 -16 -16 -15 -50 2
-73 9 -12 12 -41 10 -89 -3 -73 -16 -96 -54 -96 -9 0 -41 -21 -71 -48 -97 -85
-162 -129 -279 -191 -127 -68 -369 -152 -490 -172 -41 -6 -85 -15 -97 -20 -41
-15 -237 -32 -362 -30 -202 3 -484 52 -636 110 -44 17 -83 31 -87 31 -11 0
-165 76 -259 128 -133 73 -349 232 -349 256 0 6 37 54 81 106 90 107 126 167
110 183 -7 7 -57 -35 -158 -133 -81 -79 -218 -199 -303 -267 -85 -68 -193
-155 -240 -193 -47 -38 -119 -92 -160 -120 -41 -28 -94 -66 -117 -83 -66 -51
-129 -87 -150 -87 -11 0 -31 8 -44 18 -40 30 -173 73 -289 93 -101 18 -435 18
-520 1 -211 -44 -295 -66 -329 -89 -14 -10 -41 -26 -59 -36 l-33 -18 -57 41
c-32 22 -61 40 -64 40 -4 0 -34 16 -67 36 -78 47 -181 86 -371 140 -237 68
-239 69 -340 119 -177 87 -278 157 -395 270 -113 110 -189 218 -265 373 -22
44 -36 62 -50 62 -13 0 -20 -7 -20 -20 0 -30 -16 -25 -68 23 -26 24 -65 59
-87 78 -172 149 -480 475 -565 599 -13 19 -42 58 -65 85 -23 28 -72 97 -110
155 -38 58 -77 114 -86 125 -10 11 -30 45 -45 75 -15 30 -38 70 -52 88 -14 18
-33 47 -42 65 -48 88 -180 360 -202 417 -14 36 -42 106 -63 155 -20 50 -41
106 -46 126 -4 20 -18 58 -29 85 -12 27 -28 78 -36 114 -9 36 -28 108 -44 160
-16 52 -39 142 -50 200 -12 58 -30 141 -40 185 -11 44 -23 113 -26 152 -6 63
-5 73 10 79 23 9 189 -13 229 -31 17 -7 66 -26 107 -41 151 -55 404 -187 516
-270 69 -50 87 -63 154 -108 112 -75 180 -163 256 -331 17 -38 57 -126 88
-194 l56 -125 -10 -85 c-6 -46 -14 -89 -17 -94 -23 -37 -41 -551 -24 -687 19
-150 51 -330 68 -379 26 -78 61 -151 72 -151 13 0 13 13 1 65 -6 22 -15 74
-20 115 -54 413 -58 686 -16 995 15 110 39 240 52 290 13 49 29 110 35 135 31
125 56 199 135 390 74 180 256 519 312 583 24 27 40 20 47 -22 4 -22 13 -45
21 -52 22 -18 31 21 38 176 6 122 36 345 66 485 6 25 17 83 25 130 8 47 28
128 45 180 16 52 30 104 30 116 0 12 16 70 36 130 20 60 40 123 45 139 13 50
48 147 57 159 5 6 14 30 20 52 7 23 28 76 47 118 19 43 35 82 35 89 0 13 61
148 123 272 114 231 242 454 348 609 30 43 59 86 64 95 27 43 60 81 71 81 6 0
23 -15 36 -32z m1620 -75 c54 -54 98 -100 98 -104 0 -9 -113 -95 -149 -114
-39 -20 -37 -23 -51 125 -12 136 -13 190 -3 190 4 0 52 -44 105 -97z m378
-327 c30 -19 72 -47 94 -63 21 -15 75 -49 119 -74 45 -26 83 -51 85 -57 5 -17
-41 -42 -155 -82 -176 -61 -206 -72 -249 -91 -23 -11 -46 -19 -52 -19 -6 0
-26 -9 -44 -20 -18 -11 -40 -20 -49 -20 -8 0 -44 -12 -79 -26 -34 -14 -68 -23
-75 -21 -7 3 -18 45 -25 98 l-13 92 26 21 c14 12 53 39 87 60 33 21 105 82
158 136 53 53 102 97 107 98 6 1 35 -13 65 -32z m2139 -428 c17 -24 44 -61 61
-83 18 -22 60 -83 94 -135 35 -52 83 -124 107 -158 24 -35 52 -78 63 -95 10
-18 31 -50 47 -72 16 -22 50 -70 75 -107 50 -75 74 -84 125 -50 76 51 164 113
230 163 71 54 137 94 144 87 2 -2 27 -34 55 -73 53 -71 77 -112 69 -119 -4 -4
-177 -43 -254 -57 -117 -22 -203 -41 -240 -53 -22 -7 -62 -18 -90 -24 -27 -6
-98 -22 -157 -36 -59 -15 -116 -26 -126 -26 -10 0 -80 63 -161 145 -91 92
-151 145 -164 145 -11 0 -37 -19 -58 -41 -39 -42 -51 -40 -46 6 2 17 -4 20
-38 19 -22 0 -57 -8 -77 -17 -46 -21 -54 -9 -25 34 54 80 71 119 58 132 -9 9
-18 8 -42 -6 -60 -34 -74 -17 -40 50 11 21 23 55 26 75 6 31 32 61 160 187 85
83 158 151 164 151 6 0 24 -19 40 -42z m-678 -42 c9 -6 64 -44 123 -84 58 -41
106 -80 106 -87 0 -12 -265 -260 -298 -279 -17 -10 -58 33 -89 94 -10 19 -32
53 -49 75 -17 22 -37 51 -44 65 -7 14 -42 68 -77 121 -34 52 -63 100 -63 106
0 15 369 5 391 -11z m1299 -503 c6 -6 -72 -72 -87 -73 -16 0 -56 67 -48 80 6
10 123 4 135 -7z m-2209 -80 c66 -68 291 -331 333 -388 16 -22 42 -54 59 -72
16 -17 27 -36 23 -41 -11 -18 -264 -57 -436 -68 -58 -3 -148 -10 -200 -14
-109 -9 -766 -5 -852 6 -32 4 -58 10 -58 14 0 3 17 18 38 31 20 14 72 49 114
77 42 29 80 52 84 52 4 0 21 11 38 23 29 22 242 150 386 231 36 20 72 41 80
46 8 5 29 15 45 23 17 8 84 42 150 76 66 33 125 61 130 61 6 0 36 -26 66 -57z
m1576 -130 c63 -66 90 -100 83 -107 -11 -11 -165 -51 -329 -86 -108 -23 -101
-22 -101 -12 0 20 229 302 245 302 5 0 51 -44 102 -97z m1218 5 c49 -98 69
-188 44 -204 -12 -7 -78 19 -120 47 -14 10 -65 38 -115 64 -49 25 -93 51 -99
56 -14 14 10 26 66 34 26 4 67 13 91 20 24 8 60 14 80 14 31 1 39 -3 53 -31z
m-1316 -302 c12 -18 21 -40 21 -48 0 -9 6 -21 14 -27 16 -13 26 -80 14 -87 -4
-3 -60 20 -123 50 -64 31 -120 56 -125 56 -19 0 -60 24 -60 35 0 13 142 49
217 54 14 1 28 -10 42 -33z m2796 -4314 c9 -31 32 -94 51 -139 19 -45 34 -87
34 -92 0 -6 11 -32 25 -58 27 -52 65 -138 65 -148 0 -4 11 -21 24 -38 13 -18
35 -54 49 -82 14 -27 39 -67 56 -89 17 -21 31 -45 31 -53 0 -19 -83 -106 -151
-159 -83 -64 -229 -158 -269 -174 -19 -8 -51 -24 -70 -37 -19 -12 -62 -31 -95
-42 -33 -10 -84 -28 -113 -40 -74 -30 -261 -70 -357 -77 l-82 -7 -28 59 c-32
68 -29 61 -90 179 -91 173 -261 411 -383 537 -31 32 -53 61 -49 65 4 3 49 -1
100 -10 239 -43 379 -46 527 -11 36 8 83 19 105 23 91 18 276 128 397 236 55
49 158 167 158 181 0 13 32 44 40 39 5 -3 16 -31 25 -63z m-4544 -82 c10 -6
19 -15 19 -20 0 -13 -56 -39 -99 -45 l-36 -6 45 40 c51 47 45 44 71 31z m139
-105 c11 -13 124 -90 210 -143 68 -41 256 -133 320 -156 36 -13 92 -32 125
-44 185 -64 536 -108 731 -90 131 12 242 28 299 44 28 7 84 20 125 29 41 8 98
23 125 34 28 11 66 25 85 31 19 7 67 27 105 45 39 19 82 38 96 44 15 5 59 30
98 55 39 25 74 46 78 46 3 0 30 18 59 41 l52 40 54 -16 c29 -9 73 -25 98 -36
25 -10 71 -27 104 -38 32 -11 72 -31 90 -44 103 -80 320 -310 378 -402 14 -22
33 -47 42 -55 10 -7 29 -37 43 -64 14 -28 31 -58 38 -66 27 -32 174 -336 195
-405 7 -22 18 -53 25 -70 40 -93 110 -371 135 -540 35 -240 51 -465 45 -635
-6 -151 -34 -414 -56 -535 -31 -161 -133 -523 -159 -560 -4 -5 -10 -23 -14
-39 -4 -15 -16 -47 -26 -70 -11 -22 -27 -63 -36 -91 -9 -27 -25 -62 -35 -77
-11 -15 -26 -44 -33 -65 -8 -21 -29 -65 -47 -98 -19 -33 -41 -73 -49 -90 -8
-16 -25 -44 -37 -60 -12 -17 -26 -41 -32 -55 -10 -23 -63 -105 -136 -212 -57
-83 -149 -203 -194 -254 -25 -28 -74 -85 -108 -125 -78 -92 -221 -235 -228
-228 -3 3 4 32 15 65 12 32 30 102 40 154 11 52 23 109 28 126 33 110 43 622
14 734 -6 25 -28 112 -48 193 -20 82 -44 163 -54 180 -10 18 -21 43 -25 57
-26 97 -162 333 -286 501 -172 231 -477 511 -714 654 -36 22 -86 52 -110 68
-87 56 -305 165 -395 199 -30 11 -60 24 -65 29 -6 4 -60 24 -120 45 -61 20
-127 45 -147 55 -21 11 -48 19 -61 19 -13 0 -66 11 -118 26 -125 33 -238 59
-324 74 -38 6 -92 15 -120 20 -212 38 -465 54 -735 47 -126 -3 -232 -2 -235 2
-2 5 0 23 6 42 23 80 30 144 30 315 0 192 -15 298 -60 428 -12 33 -21 66 -21
75 0 9 -6 27 -13 41 -8 14 -33 63 -57 110 -24 47 -50 93 -58 102 -20 23 -6 39
63 73 30 14 57 31 60 36 4 5 30 25 58 44 79 52 164 112 252 178 44 33 98 67
120 75 22 9 47 21 55 28 8 6 33 17 55 25 22 7 69 26 105 42 36 15 74 32 85 37
11 4 52 22 90 38 79 35 107 39 125 17z m-5417 -35 c26 -6 70 -10 96 -10 184 0
674 -145 1018 -301 23 -10 47 -19 53 -19 7 0 42 -14 78 -31 77 -37 98 -45 132
-55 14 -4 48 -17 75 -30 72 -33 164 -67 380 -139 233 -77 374 -114 593 -156
201 -38 195 -49 -30 -56 -154 -5 -277 3 -418 27 -146 25 -319 50 -349 50 -18
0 -67 8 -109 19 -43 10 -104 24 -137 31 -33 7 -73 16 -89 21 -16 5 -40 9 -53
9 -27 0 -267 51 -513 109 -265 62 -460 88 -700 92 -119 2 -187 -4 -385 -32
-303 -43 -520 -109 -770 -236 -317 -162 -603 -440 -749 -731 -142 -282 -201
-626 -157 -907 24 -153 122 -405 192 -494 10 -13 19 -29 19 -35 0 -7 20 -32
45 -56 25 -24 45 -50 45 -56 0 -7 16 -22 35 -34 19 -12 38 -27 42 -35 11 -17
126 -115 137 -115 4 0 30 -16 56 -35 63 -46 172 -96 290 -133 117 -36 168 -48
290 -63 52 -7 100 -17 107 -23 16 -15 60 -258 68 -381 4 -55 9 -118 10 -140 2
-22 4 -141 4 -265 1 -327 -25 -618 -74 -835 -9 -38 -20 -92 -25 -120 -25 -140
-139 -544 -171 -607 -5 -10 -9 -23 -9 -30 0 -7 -6 -24 -13 -38 -7 -14 -21 -47
-31 -75 -10 -27 -26 -68 -36 -90 -10 -22 -30 -69 -45 -105 -15 -36 -44 -102
-66 -147 -21 -46 -39 -87 -39 -91 0 -5 -11 -26 -25 -46 -13 -20 -34 -60 -47
-89 -12 -28 -30 -63 -40 -76 -10 -14 -27 -43 -38 -65 -22 -45 -41 -78 -108
-181 -115 -180 -122 -187 -122 -141 0 23 38 224 60 315 6 24 15 105 21 180 5
75 14 170 19 211 14 99 13 557 0 690 -6 58 -15 151 -20 206 -6 56 -15 124 -20
150 -5 27 -17 85 -25 129 -8 44 -19 96 -25 115 -5 19 -10 49 -10 66 0 18 -13
72 -30 121 -16 48 -38 122 -49 163 -21 81 -87 284 -102 312 -5 10 -18 46 -30
80 -25 77 -79 210 -91 223 -4 5 -8 17 -8 26 0 9 -13 41 -28 70 -15 30 -43 90
-61 134 -34 83 -41 99 -110 251 -23 50 -41 99 -41 108 0 10 -7 30 -15 44 -17
32 -51 127 -70 197 -7 28 -16 61 -20 75 -4 14 -13 39 -20 55 -13 29 -47 185
-87 390 -36 190 -35 617 2 780 5 22 19 85 31 140 37 172 140 474 201 585 10
19 30 60 44 90 14 30 31 61 38 70 7 8 27 41 45 74 53 98 140 205 276 341 131
131 205 196 247 218 13 7 39 23 58 37 68 49 312 170 375 186 14 3 28 10 31 15
3 5 15 9 26 9 20 0 139 33 183 51 24 9 65 15 200 30 248 25 488 29 588 9z
m2071 -48 c13 -21 220 -113 311 -137 108 -30 187 -58 191 -69 2 -6 8 -48 13
-93 9 -67 18 -98 53 -160 23 -43 61 -100 85 -128 25 -29 39 -53 34 -58 -17
-17 -507 59 -536 83 -47 39 -142 210 -169 302 -16 56 -23 248 -9 261 9 9 21 9
27 -1z m703 -263 c24 -11 49 -19 56 -19 8 0 32 -12 53 -27 21 -14 55 -33 74
-42 43 -20 151 -93 169 -115 7 -9 53 -37 102 -63 49 -25 89 -52 89 -59 0 -7
-17 -18 -37 -23 -104 -27 -182 -42 -258 -47 l-83 -7 -60 47 c-50 40 -133 132
-166 185 -34 54 -59 185 -40 204 6 6 23 0 101 -34z m1246 -34 c100 -16 250
-58 275 -78 21 -17 14 -26 -50 -58 -35 -17 -74 -39 -88 -49 -24 -17 -79 -39
-205 -83 -51 -17 -84 -21 -220 -21 -142 -1 -168 2 -230 22 -96 32 -203 85
-245 120 -34 29 -35 30 -16 50 10 12 37 25 60 31 22 6 82 22 132 35 160 43
418 57 587 31z m-3763 -190 c210 -21 318 -39 465 -78 72 -19 168 -42 215 -51
47 -9 103 -21 125 -27 22 -5 69 -14 105 -20 62 -11 210 -41 295 -61 22 -5 75
-14 118 -21 42 -6 77 -15 77 -19 0 -4 -28 -8 -62 -9 -439 -3 -859 -20 -1013
-40 -44 -6 -116 -15 -160 -20 -44 -5 -106 -12 -138 -15 -51 -6 -65 -3 -120 24
-112 54 -131 61 -252 91 -199 50 -343 56 -535 22 -118 -20 -138 -36 -193 -151
-37 -78 -54 -130 -107 -336 -22 -85 -45 -249 -66 -479 -20 -207 -13 -634 11
-784 9 -52 20 -136 25 -185 9 -94 29 -192 73 -356 45 -165 54 -195 66 -219 19
-34 7 -51 -36 -51 -54 0 -252 39 -285 56 -15 8 -36 14 -48 14 -32 0 -200 85
-285 144 -68 47 -222 194 -272 259 -85 111 -153 261 -192 422 -7 28 -17 68
-22 90 -23 92 -12 359 20 480 5 22 19 74 29 115 41 159 115 311 242 494 54 79
372 366 404 366 3 0 28 15 55 34 27 19 80 50 117 69 38 18 78 38 89 44 127 66
428 150 655 182 234 34 384 37 600 16z m4032 -82 c53 -87 104 -191 123 -253 7
-25 23 -76 36 -115 24 -79 39 -323 28 -475 -5 -73 -38 -200 -58 -222 -3 -3
-87 -15 -187 -27 -100 -11 -193 -25 -208 -31 -15 -5 -45 -10 -67 -10 -22 0
-112 -18 -201 -40 -88 -22 -164 -37 -169 -35 -4 3 -1 27 7 53 60 184 76 427
40 587 -19 85 -63 222 -77 241 -5 6 -21 33 -35 60 -14 27 -46 72 -70 101 -24
28 -44 54 -44 57 0 3 16 13 36 21 32 13 43 13 94 0 38 -10 105 -15 196 -15
118 0 151 4 219 25 119 35 144 45 215 81 36 18 73 33 82 33 9 1 27 -16 40 -36z
m5888 -45 c0 -29 -5 -73 -11 -98 -6 -25 -14 -69 -19 -97 -9 -55 -85 -238 -123
-297 -12 -20 -35 -56 -50 -81 -41 -65 -218 -247 -290 -298 -117 -82 -332 -171
-434 -179 l-36 -3 -17 85 c-10 47 -33 139 -50 205 -18 66 -36 138 -40 160 -4
22 -17 60 -28 85 -36 75 -28 90 45 90 64 0 317 61 398 95 17 7 50 20 75 29
131 48 369 190 474 283 45 40 87 72 94 73 8 0 12 -17 12 -52z m-6861 -113 c82
-55 202 -245 221 -350 4 -22 15 -82 24 -133 20 -107 16 -243 -10 -362 -17 -77
-69 -198 -101 -236 -10 -12 -60 -36 -113 -54 -52 -18 -117 -43 -144 -56 -28
-13 -55 -24 -62 -24 -12 0 -179 -83 -299 -150 -96 -53 -236 -161 -319 -245
-77 -78 -206 -246 -238 -309 -11 -23 -33 -59 -49 -82 -30 -44 -173 -334 -195
-398 -8 -22 -23 -58 -34 -80 -21 -45 -92 -222 -120 -301 -10 -27 -30 -76 -44
-108 -14 -32 -26 -66 -26 -77 0 -10 -4 -21 -9 -24 -5 -3 -12 -18 -16 -33 -3
-15 -15 -45 -25 -68 -10 -22 -23 -59 -29 -82 -6 -22 -27 -75 -45 -116 -19 -41
-41 -97 -49 -125 -8 -27 -25 -69 -38 -93 -12 -24 -25 -57 -30 -74 -7 -31 -104
-261 -139 -330 -11 -22 -20 -43 -20 -47 0 -7 -177 -365 -235 -477 -16 -31 -58
-104 -92 -162 -35 -58 -63 -108 -63 -112 0 -4 -16 -28 -36 -54 -20 -26 -40
-56 -44 -68 -12 -27 -83 -128 -147 -206 -213 -260 -496 -519 -772 -707 -155
-105 -181 -122 -187 -122 -4 0 -27 -15 -53 -34 -49 -36 -89 -58 -276 -156 -66
-35 -125 -67 -132 -72 -6 -5 -24 -13 -40 -18 -15 -4 -73 -27 -128 -50 -87 -36
-193 -75 -340 -125 -22 -7 -80 -20 -130 -29 -49 -9 -109 -21 -132 -26 -52 -12
-180 -13 -187 -1 -3 5 9 28 27 52 18 24 44 62 57 84 13 22 34 54 47 70 24 29
66 96 132 205 41 68 124 222 169 315 18 39 53 111 78 160 24 50 44 95 44 100
0 5 8 27 18 49 11 23 28 64 39 91 12 28 37 88 56 135 20 47 38 99 42 115 4 17
24 82 45 145 21 63 45 144 54 180 10 36 28 106 41 155 13 50 26 115 30 145 4
30 14 80 22 110 43 161 73 519 73 868 0 134 -2 247 -4 251 -3 4 -10 72 -16
152 -6 79 -20 188 -31 242 -12 56 -17 103 -13 107 5 5 67 21 138 35 71 14 147
33 170 40 23 8 49 15 58 15 15 0 187 67 229 90 9 5 53 28 98 52 136 71 179
101 324 228 76 67 277 325 277 356 0 2 18 41 40 87 22 45 49 116 60 157 12 41
28 98 36 125 22 70 31 419 14 535 -13 88 -82 314 -104 340 -7 8 -28 44 -46 80
-38 77 -55 98 -168 213 -92 94 -95 107 -24 107 18 0 92 6 165 14 266 29 480
39 832 37 742 -2 1352 45 1725 134 123 29 124 29 169 0z m-3459 -73 c185 -50
311 -105 411 -179 199 -147 321 -320 385 -545 l28 -98 -28 -107 c-15 -60 -31
-124 -35 -143 -4 -19 -18 -57 -30 -85 -13 -27 -28 -61 -34 -75 -6 -14 -27 -52
-47 -85 -19 -33 -41 -71 -48 -85 -17 -32 -174 -196 -232 -241 -52 -41 -194
-123 -230 -133 -14 -4 -43 -15 -65 -25 -57 -25 -136 -47 -240 -68 -108 -21
-505 -26 -541 -6 -17 10 -22 29 -33 110 -6 54 -17 127 -24 163 -8 42 -12 183
-12 395 0 290 3 348 23 480 12 83 24 168 27 190 8 62 71 306 100 385 23 64 62
128 87 141 78 42 399 48 538 11z m5320 -917 c316 -32 595 -79 714 -121 38 -13
81 -24 95 -24 14 0 73 -18 131 -40 58 -22 110 -40 116 -40 14 0 294 -117 308
-129 6 -5 31 -17 56 -27 50 -20 217 -116 330 -189 122 -79 208 -145 335 -259
229 -206 406 -426 527 -656 22 -41 44 -79 48 -85 4 -5 15 -32 25 -60 9 -27 27
-72 39 -100 13 -27 29 -72 35 -100 7 -27 19 -77 28 -110 41 -157 45 -185 50
-416 6 -251 -2 -335 -48 -534 -29 -126 -98 -337 -129 -395 -23 -43 -195 -195
-335 -295 -31 -22 -77 -56 -103 -75 -26 -20 -74 -53 -107 -74 -33 -20 -82 -51
-109 -69 -27 -18 -74 -46 -103 -62 -29 -17 -58 -36 -65 -43 -7 -7 -17 -12 -24
-12 -6 0 -23 -9 -37 -20 -33 -26 -349 -187 -442 -225 -38 -16 -75 -32 -81 -37
-6 -4 -46 -21 -90 -37 -43 -16 -104 -39 -134 -51 -59 -25 -72 -29 -140 -55
-94 -35 -93 -56 3 -149 40 -39 104 -111 142 -161 72 -94 155 -218 155 -231 0
-4 15 -37 34 -73 18 -36 41 -93 51 -126 9 -33 23 -77 31 -98 48 -130 61 -511
24 -682 -29 -131 -97 -335 -127 -380 -7 -11 -13 -25 -13 -32 0 -15 -105 -203
-152 -271 -57 -84 -184 -236 -244 -292 -155 -147 -379 -330 -404 -330 -4 0
-28 -16 -55 -36 -69 -53 -292 -181 -425 -243 -63 -30 -122 -60 -130 -67 -8 -6
-26 -15 -40 -19 -14 -3 -45 -16 -70 -27 -136 -63 -173 -78 -185 -78 -7 0 -28
-8 -47 -17 -18 -9 -41 -20 -51 -25 -11 -5 -60 -22 -110 -38 -51 -15 -117 -37
-147 -48 -30 -11 -98 -32 -150 -47 -52 -15 -117 -34 -145 -42 -27 -8 -68 -19
-90 -23 -22 -5 -80 -20 -129 -34 -49 -13 -148 -34 -220 -46 -72 -12 -175 -30
-230 -41 -120 -23 -175 -25 -182 -4 -11 27 100 427 158 570 11 28 37 97 57
155 21 58 48 124 60 147 11 23 21 47 21 52 0 20 217 473 250 521 9 14 32 52
49 85 35 65 59 98 163 233 37 48 68 94 68 103 0 33 -26 42 -92 31 -125 -21
-391 -54 -660 -83 -148 -15 -531 -27 -775 -23 -292 5 -495 19 -918 64 -188 21
-561 96 -638 129 -54 23 -66 44 -46 76 27 44 224 251 324 341 55 49 145 132
200 184 55 52 169 151 254 220 85 69 185 150 222 180 174 143 398 315 489 376
36 24 86 59 111 77 25 17 88 60 140 94 52 34 119 80 150 102 31 23 61 41 66
41 6 0 28 13 49 28 21 16 84 54 139 86 55 32 107 62 115 67 8 5 58 31 111 57
53 27 107 56 120 65 13 10 29 17 35 17 7 0 51 18 98 40 47 22 89 40 92 40 15
0 44 34 44 52 0 26 -46 45 -230 94 -95 26 -113 32 -215 69 -55 20 -115 41
-133 47 -19 5 -48 18 -65 29 -18 10 -38 19 -45 19 -18 0 -259 108 -397 178
-38 19 -83 42 -100 49 -16 8 -37 18 -45 23 -8 5 -44 26 -80 46 -112 63 -221
145 -218 162 5 27 240 154 503 272 60 27 146 60 156 60 6 0 32 11 58 24 26 13
85 36 132 51 46 15 109 38 139 52 41 20 80 28 155 34 101 7 220 41 311 87 22
11 79 28 125 37 46 8 107 20 134 25 28 5 111 17 185 26 74 9 167 20 205 25 98
11 383 11 485 -1 294 -35 468 -80 649 -166 152 -74 214 -116 332 -234 104
-103 121 -124 158 -203 55 -116 73 -198 74 -329 l1 -106 -45 -68 c-93 -144
-339 -402 -478 -503 -171 -123 -214 -153 -248 -173 -223 -128 -411 -221 -496
-244 -26 -7 -54 -17 -61 -23 -13 -11 -99 -36 -174 -52 -88 -18 -121 -49 -90
-86 11 -14 31 -15 138 -10 225 11 400 40 610 102 30 9 71 21 90 25 19 5 54 18
77 30 23 11 47 20 53 20 17 0 192 86 276 136 41 24 78 44 83 44 4 0 16 9 27
21 10 12 32 28 48 36 97 50 355 291 439 411 29 40 70 99 93 130 22 32 45 72
52 90 6 18 22 47 34 65 24 34 58 103 58 119 0 5 11 33 24 61 48 104 100 326
118 504 19 193 -8 435 -76 673 -8 30 -27 87 -41 125 -15 39 -30 84 -35 100 -7
28 -78 170 -162 326 -19 36 -54 93 -78 128 -47 69 -47 87 0 47 39 -32 75 -42
95 -26 21 17 19 112 -4 225 -10 50 -17 93 -14 98 2 4 66 7 142 7 127 0 141 2
172 23 19 12 35 30 37 39 4 23 -60 115 -157 223 -44 50 -81 93 -81 97 0 6 91
60 163 98 33 16 77 65 77 84 0 17 -39 66 -52 66 -6 0 -32 16 -58 35 -26 19
-51 35 -54 35 -4 0 -42 17 -84 37 -72 34 -203 84 -317 120 -27 9 -59 19 -70
23 -62 24 -148 51 -186 59 -24 5 -89 21 -144 36 -55 15 -145 35 -200 46 -55
10 -136 25 -180 34 -192 37 -282 45 -489 45 -203 0 -260 -8 -227 -29 7 -5 73
-14 145 -20 72 -7 153 -16 179 -22 26 -5 74 -9 105 -9 31 0 89 -7 127 -15 39
-9 131 -27 205 -41 74 -14 182 -36 240 -50 58 -14 132 -32 165 -39 103 -24
443 -140 575 -197 87 -37 200 -97 200 -106 0 -16 -81 -73 -138 -99 -66 -29
-92 -49 -92 -73 0 -17 64 -99 174 -223 86 -98 83 -101 -121 -96 -200 5 -204 2
-160 -84 29 -57 52 -159 43 -184 -5 -11 -18 -4 -58 30 -47 40 -204 156 -328
241 -58 41 -176 112 -254 154 -33 19 -75 44 -93 58 -17 13 -36 24 -42 24 -6 0
-51 23 -101 50 -50 28 -92 50 -94 50 -2 0 -65 29 -140 65 -75 36 -140 65 -146
65 -5 0 -38 13 -72 29 -58 26 -241 92 -433 156 -74 24 -143 41 -330 81 -108
24 -118 41 -57 102 77 77 238 165 357 195 33 8 87 22 121 31 33 9 94 20 135
25 121 14 413 12 569 -4z m-1080 -59 c0 -2 -26 -21 -57 -42 -82 -55 -126 -101
-157 -162 -21 -42 -31 -52 -44 -47 -9 4 -98 10 -197 14 -128 4 -180 9 -180 18
0 6 28 37 62 67 58 54 67 57 180 87 173 45 278 65 351 68 23 0 42 -1 42 -3z
m-3400 -216 c0 -105 -53 -315 -113 -451 -34 -77 -121 -213 -184 -289 -55 -65
-238 -230 -256 -230 -5 0 -26 -14 -48 -30 -39 -31 -208 -121 -289 -153 -25
-10 -53 -23 -63 -28 -41 -23 -354 -98 -409 -98 -31 -1 -40 4 -51 27 -37 73
-131 414 -125 454 3 25 -6 24 158 16 108 -6 289 7 383 28 39 9 95 20 122 24
48 8 158 47 255 92 82 37 214 131 294 207 141 136 244 294 299 459 16 49 27
38 27 -28z m2664 42 c2 -4 -21 -37 -52 -73 -150 -173 -191 -225 -239 -306 -29
-49 -60 -104 -70 -123 -61 -127 -84 -187 -109 -280 -25 -94 -28 -121 -28 -260
1 -133 4 -169 26 -252 82 -308 299 -529 598 -609 68 -18 111 -22 215 -22 73 0
142 5 158 12 47 18 50 3 10 -52 -90 -125 -240 -248 -384 -315 -131 -62 -189
-73 -361 -73 -171 0 -196 5 -360 80 -212 95 -358 289 -428 566 -29 115 -33
146 -33 265 0 129 5 167 40 325 23 108 94 293 140 367 13 21 23 42 23 47 0 6
14 30 30 53 17 24 53 75 80 115 69 100 206 259 271 314 55 47 219 132 369 193
98 39 97 39 104 28z m541 -166 c44 -8 109 -22 145 -31 36 -9 85 -20 110 -25
81 -14 389 -109 414 -129 6 -4 38 -16 71 -26 33 -10 64 -21 70 -26 5 -5 15 -9
23 -9 16 0 93 -32 220 -91 45 -22 88 -39 95 -39 7 0 28 -10 47 -23 19 -12 60
-34 90 -47 30 -13 62 -29 70 -36 8 -7 42 -25 75 -41 73 -35 255 -144 362 -216
53 -36 88 -69 110 -102 18 -28 46 -67 63 -89 16 -21 30 -45 30 -52 0 -8 11
-33 25 -55 44 -69 135 -255 135 -276 0 -10 4 -23 10 -29 17 -17 60 -143 95
-283 43 -169 59 -345 50 -551 -8 -175 -26 -273 -86 -470 -25 -83 -127 -300
-141 -300 -4 0 -10 17 -13 38 -20 126 -76 272 -137 362 -24 34 -50 72 -58 85
-40 58 -322 275 -358 275 -7 0 -43 15 -80 34 -74 38 -246 98 -332 115 -270 55
-391 65 -665 58 -152 -4 -257 -12 -340 -27 -119 -20 -205 -26 -205 -14 0 4 28
39 63 78 107 121 190 243 191 283 1 49 -23 63 -66 41 -18 -9 -81 -29 -141 -43
-93 -22 -120 -25 -200 -19 -107 8 -248 50 -318 94 -25 17 -50 30 -55 30 -24 0
-187 178 -216 235 -16 33 -34 67 -39 75 -16 27 -27 54 -44 112 -46 159 -46
345 1 497 8 25 14 53 14 63 0 11 17 56 38 101 21 45 46 99 55 120 23 51 139
214 216 305 l65 74 230 -5 c143 -3 261 -11 311 -21z m5375 -875 c38 -32 105
-81 147 -109 43 -29 89 -60 102 -69 23 -17 141 -81 186 -101 63 -28 243 -89
281 -95 21 -3 68 -12 104 -20 36 -8 97 -18 135 -21 105 -11 135 -17 135 -30 0
-13 -128 -146 -140 -146 -4 0 -25 -14 -46 -31 -45 -36 -115 -69 -223 -106
-103 -34 -299 -43 -418 -19 -110 22 -295 83 -335 110 -18 12 -59 34 -90 50
-32 16 -67 40 -80 53 l-22 23 23 63 c28 77 70 209 83 262 6 22 21 79 34 126
13 47 24 93 24 102 0 30 29 18 100 -42z m-3056 -577 c9 -22 -3 -32 -14 -14
-12 19 -12 30 -1 30 5 0 12 -7 15 -16z m33 -66 c6 -7 25 -53 42 -103 18 -49
36 -94 40 -100 5 -5 11 -21 14 -35 3 -14 16 -63 27 -110 65 -264 77 -396 55
-620 -13 -136 -51 -324 -81 -395 -6 -16 -27 -68 -45 -114 -82 -208 -288 -493
-458 -633 -42 -35 -85 -72 -96 -84 -11 -11 -60 -47 -110 -79 -49 -32 -108 -70
-130 -85 -45 -30 -248 -130 -264 -130 -6 0 -27 -7 -48 -16 -86 -38 -128 -52
-238 -80 -170 -43 -178 -45 -199 -41 -15 2 11 19 84 56 179 88 247 127 405
230 111 72 359 281 447 376 77 83 252 300 269 333 8 15 30 52 50 82 72 112
162 317 203 465 9 33 21 74 26 90 40 127 59 429 41 633 -6 67 -24 175 -41 239
-16 64 -27 120 -24 125 7 12 20 10 31 -4z"/>
<path d="M12640 28583 c-168 -16 -376 -139 -447 -264 -63 -111 -77 -206 -44
-302 69 -200 255 -339 501 -372 151 -21 344 2 420 50 19 12 53 30 75 41 56 26
134 108 172 179 35 67 58 171 49 226 -10 64 -61 167 -109 223 -55 64 -158 144
-196 152 -14 3 -39 11 -56 19 -16 8 -49 19 -72 24 -24 6 -60 16 -82 21 -36 9
-134 11 -211 3z m-21 -421 c88 -43 141 -128 127 -204 -8 -44 -58 -103 -107
-128 -52 -27 -186 -28 -244 -1 -49 22 -120 100 -128 139 -10 49 11 114 51 155
20 20 40 37 45 37 5 0 23 6 40 14 66 30 136 26 216 -12z"/>
<path d="M13822 28368 c-7 -7 -12 -21 -12 -33 0 -49 63 -64 81 -19 16 45 -36
85 -69 52z"/>
<path d="M14052 27909 c-19 -7 -23 -15 -20 -40 4 -39 30 -59 56 -43 21 13 28
60 11 80 -13 16 -15 16 -47 3z"/>
<path d="M13625 27780 c-15 -17 -16 -24 -7 -45 14 -29 42 -32 65 -7 22 24 21
35 -1 55 -24 22 -35 21 -57 -3z"/>
<path d="M13467 27273 c-18 -18 -2 -51 51 -102 71 -69 123 -171 158 -306 16
-59 19 -110 18 -325 0 -269 0 -274 -56 -475 -34 -124 -63 -206 -90 -250 -10
-16 -18 -37 -18 -45 0 -29 -140 -246 -212 -330 -40 -46 -102 -108 -138 -136
-72 -59 -90 -85 -70 -109 19 -22 38 -19 84 17 122 95 281 276 340 387 126 242
138 273 207 541 48 190 51 594 5 765 -37 137 -75 220 -134 294 -52 64 -120 99
-145 74z"/>
<path d="M12232 26880 c-151 -33 -273 -99 -398 -214 -82 -76 -158 -167 -188
-225 -9 -17 -27 -47 -41 -67 -14 -20 -30 -55 -36 -78 -6 -22 -14 -45 -19 -51
-4 -5 -17 -41 -30 -80 -39 -122 -48 -343 -19 -480 24 -116 107 -280 183 -363
45 -50 159 -124 243 -159 87 -36 89 -37 233 -37 151 -1 164 2 285 54 97 42
121 54 175 94 197 144 320 313 407 561 27 78 28 86 28 295 0 238 0 238 -75
396 -67 139 -180 254 -305 309 -137 60 -297 76 -443 45z m301 -85 c20 -8 47
-15 61 -15 13 0 38 -11 54 -25 17 -14 32 -25 35 -25 3 0 26 -14 51 -30 90 -61
168 -174 217 -316 31 -86 32 -95 31 -249 0 -111 -5 -177 -15 -215 -24 -86 -74
-220 -90 -239 -8 -9 -29 -43 -47 -76 -48 -84 -196 -230 -294 -289 -44 -27
-116 -62 -160 -78 -248 -93 -526 -9 -687 209 -22 29 -39 55 -39 58 0 4 -11 30
-24 58 -57 126 -75 257 -57 427 25 249 152 481 355 648 78 64 112 85 206 125
125 54 316 69 403 32z"/>
<path d="M11025 25105 c-153 -30 -279 -107 -318 -194 -16 -36 -19 -60 -15
-127 4 -77 7 -88 43 -139 21 -31 61 -75 89 -99 58 -48 150 -106 169 -106 8 0
16 -3 20 -6 16 -16 182 -66 262 -79 159 -26 402 -13 449 24 6 5 29 14 51 21
50 16 114 60 149 100 45 54 61 152 38 236 -12 41 -91 152 -120 168 -10 5 -28
19 -42 31 -67 60 -161 101 -372 161 -75 22 -314 27 -403 9z m347 -89 c143 -62
144 -170 1 -212 -122 -35 -282 -12 -347 52 -70 68 -37 136 83 175 42 14 221 3
263 -15z"/>
<path d="M12290 24621 c-15 -29 -12 -49 9 -61 31 -16 51 -12 62 14 23 50 -45
95 -71 47z"/>
<path d="M12586 24381 c-10 -11 -16 -30 -14 -43 2 -19 9 -23 38 -23 34 0 35 1
35 40 0 33 -4 41 -21 43 -11 2 -28 -6 -38 -17z"/>
<path d="M12121 24256 c-20 -24 -10 -70 17 -74 49 -7 70 44 30 72 -28 20 -32
20 -47 2z"/>
<path d="M16529 26495 c-59 -7 -116 -18 -127 -24 -11 -6 -31 -11 -44 -11 -66
-1 -270 -86 -416 -175 -88 -53 -251 -201 -332 -300 -92 -112 -170 -269 -206
-410 -52 -204 -53 -216 -54 -406 0 -102 4 -199 9 -215 5 -16 17 -56 26 -89 9
-33 21 -69 25 -80 5 -11 16 -41 26 -67 9 -26 27 -62 40 -80 13 -17 24 -36 24
-40 0 -5 23 -44 52 -86 142 -213 432 -406 584 -388 76 9 210 75 298 146 77 62
201 184 244 240 28 36 34 37 75 6 55 -42 133 -76 174 -76 28 0 51 9 80 30 36
27 93 90 93 104 0 3 13 24 29 48 52 79 91 159 122 251 17 51 35 99 39 107 4 8
18 84 30 169 26 180 24 275 -9 338 -24 48 -52 60 -103 45 -18 -6 -56 -14 -85
-17 -63 -8 -73 4 -73 92 -1 79 -26 326 -45 448 -24 156 -95 344 -147 392 -57
54 -163 69 -329 48z m238 -89 c42 -21 68 -55 88 -111 9 -27 21 -58 26 -67 13
-25 36 -141 49 -248 6 -52 16 -117 21 -145 17 -84 24 -341 10 -349 -16 -10
-192 -28 -261 -27 -50 1 -83 8 -246 55 -63 18 -268 116 -313 150 -19 14 -39
26 -44 26 -5 0 -27 16 -50 35 -23 19 -62 51 -87 71 -61 49 -136 138 -167 199
l-26 50 49 43 c167 148 438 279 649 315 117 20 267 21 302 3z m-1024 -486 c80
-146 293 -316 525 -421 85 -39 255 -95 337 -112 94 -20 263 -8 460 31 183 37
174 36 185 7 6 -15 10 -48 10 -75 0 -53 -34 -284 -49 -340 -22 -77 -69 -199
-106 -272 -41 -82 -155 -218 -182 -218 -17 0 -115 55 -173 96 -40 29 -46 29
-175 -11 -267 -81 -595 -17 -875 171 -93 62 -211 179 -250 248 l-33 59 6 136
c11 261 105 535 241 704 36 45 53 44 79 -3z m-195 -1135 c11 -14 24 -25 29
-25 5 0 20 -11 33 -25 13 -14 35 -31 49 -39 95 -49 119 -61 141 -76 27 -19
162 -69 250 -94 108 -30 208 -39 351 -33 85 4 139 3 139 -3 0 -34 -188 -192
-289 -241 -142 -70 -252 -42 -435 110 -107 90 -140 124 -197 205 -74 105 -115
183 -126 240 -6 26 -4 27 15 17 11 -6 29 -22 40 -36z"/>
<path d="M15762 21288 c-20 -20 -14 -43 26 -89 45 -53 121 -153 147 -194 32
-49 115 -218 115 -232 0 -7 9 -32 20 -56 55 -119 102 -361 116 -598 11 -193
-35 -527 -93 -667 -29 -69 -25 -94 16 -100 18 -3 26 7 51 60 37 80 85 318 101
500 26 304 -47 716 -171 966 -17 34 -34 72 -39 85 -9 22 -92 151 -147 227 -40
55 -97 110 -114 110 -9 0 -21 -5 -28 -12z"/>
<path d="M13462 21499 c-30 -7 -59 -26 -94 -59 l-50 -49 4 -61 c4 -55 8 -64
46 -103 34 -35 58 -47 133 -71 98 -31 168 -35 250 -17 72 16 95 27 138 67 39
35 41 39 41 98 0 53 -4 66 -29 97 -16 19 -59 49 -97 68 -63 31 -77 33 -183 37
-64 2 -135 -1 -159 -7z m304 -100 c50 -24 84 -65 84 -103 0 -37 -72 -77 -153
-83 -134 -11 -297 58 -297 124 0 32 43 70 94 82 65 16 219 4 272 -20z"/>
<path d="M14702 18608 c-16 -16 -15 -43 3 -58 22 -18 145 -39 272 -47 96 -5
116 -4 138 11 18 12 25 24 23 39 -3 21 -10 22 -133 30 -71 4 -164 14 -206 22
-91 18 -82 18 -97 3z"/>
<path d="M14588 17969 c-10 -5 -18 -19 -18 -29 0 -37 38 -48 200 -61 175 -13
223 -7 228 30 6 41 -11 48 -126 49 -59 1 -141 6 -182 12 -91 11 -81 11 -102
-1z"/>
<path d="M15876 13851 c-5 -7 119 -80 294 -173 127 -68 382 -258 542 -404 134
-123 379 -399 500 -566 15 -20 41 -44 58 -53 33 -17 38 -36 15 -55 -33 -27
-11 -79 51 -117 18 -12 17 -14 -18 -44 -46 -38 -50 -76 -13 -125 29 -38 30
-47 10 -64 -19 -16 -19 -63 0 -101 16 -29 16 -30 -15 -40 -36 -13 -53 -40 -45
-72 10 -36 1 -40 -165 -79 -37 -8 -136 -12 -305 -12 -267 1 -367 12 -565 59
-58 14 -127 30 -155 36 -27 6 -63 17 -80 25 -16 7 -57 21 -90 32 -67 22 -204
80 -280 119 -27 14 -77 39 -110 56 -32 16 -74 40 -92 54 -31 24 -63 26 -63 4
0 -22 198 -169 280 -208 133 -63 189 -87 215 -94 16 -4 55 -17 85 -29 30 -12
84 -28 120 -36 36 -9 88 -21 115 -29 194 -54 492 -81 762 -71 129 5 188 12
283 35 150 36 174 50 167 97 -5 29 -2 37 23 54 43 31 46 55 14 101 l-27 39 27
25 c36 33 34 73 -4 110 -16 16 -30 33 -30 39 0 6 16 27 36 47 30 31 35 42 30
65 -4 15 -21 40 -37 55 -29 27 -30 30 -18 62 19 53 6 83 -52 116 -29 16 -64
48 -82 74 -96 137 -196 252 -374 431 -198 199 -351 332 -452 393 -29 18 -61
39 -70 47 -52 46 -303 165 -402 190 -71 19 -76 19 -83 7z"/>
<path d="M13384 13665 c-34 -7 -80 -23 -102 -34 -23 -12 -46 -21 -53 -21 -21
0 -133 -86 -166 -128 -49 -61 -100 -160 -117 -228 -9 -34 -16 -103 -16 -153 0
-78 5 -103 33 -179 38 -101 100 -184 186 -250 78 -59 127 -81 222 -100 116
-22 266 -6 359 40 119 58 250 206 284 321 38 130 39 195 3 345 -24 99 -114
226 -206 290 -123 86 -297 126 -427 97z m278 -111 c180 -78 298 -252 298 -440
0 -114 -49 -238 -128 -326 -42 -47 -156 -117 -211 -129 -320 -72 -593 124
-609 438 -7 133 45 261 145 358 92 89 199 133 330 134 85 1 99 -2 175 -35z"/>
<path d="M12005 13131 c-101 -30 -131 -47 -205 -118 -63 -60 -74 -77 -97 -143
-41 -119 -28 -246 35 -338 43 -62 137 -138 210 -168 61 -25 78 -28 197 -28
l130 0 80 41 c104 55 188 142 225 233 10 22 15 71 15 135 -1 94 -2 103 -34
163 -42 77 -92 128 -174 177 -102 62 -262 81 -382 46z m72 -472 c87 -53 38
-176 -75 -187 -65 -6 -134 24 -157 67 -14 29 -14 34 1 67 37 78 147 103 231
53z"/>
<path d="M12810 11728 c0 -6 14 -36 30 -65 60 -107 72 -148 71 -267 l0 -109
-66 -131 c-69 -139 -91 -177 -141 -247 -75 -106 -78 -190 -11 -292 9 -14 17
-35 17 -46 0 -11 4 -23 10 -26 5 -3 14 -24 20 -45 10 -35 8 -46 -17 -96 -15
-32 -47 -78 -70 -105 -48 -53 -55 -74 -20 -64 55 17 117 68 158 131 46 71 63
84 108 84 31 0 144 27 170 40 9 5 48 16 86 25 83 20 226 65 240 75 6 4 26 10
46 14 33 6 104 32 194 71 17 7 50 20 74 29 23 9 59 28 79 41 20 14 40 25 44
25 23 0 163 98 221 155 82 80 106 128 107 211 0 49 -5 68 -29 106 -30 48 -110
113 -171 141 -51 22 -207 73 -265 86 -103 23 -336 51 -514 61 -101 6 -187 13
-191 15 -5 3 -22 30 -39 60 -50 88 -141 168 -141 123z m485 -288 c316 -25 581
-90 698 -173 46 -32 87 -96 87 -134 0 -74 -117 -198 -263 -278 -72 -39 -93
-42 -181 -19 -126 32 -280 122 -406 238 -126 116 -237 286 -228 348 2 19 10
24 48 28 25 3 59 5 75 3 17 -1 93 -7 170 -13z m-251 -284 c58 -80 196 -213
256 -248 121 -71 228 -127 253 -133 33 -9 35 -23 3 -35 -13 -5 -27 -13 -30
-18 -3 -4 -24 -14 -48 -22 -24 -7 -81 -26 -128 -42 -47 -16 -125 -40 -175 -53
-49 -14 -130 -36 -180 -50 -49 -13 -109 -25 -133 -25 -37 0 -44 4 -52 26 -6
15 -26 59 -45 99 -19 40 -35 84 -35 99 0 30 28 89 71 153 16 23 29 46 29 51 0
5 9 17 19 26 11 10 40 61 66 114 48 99 62 122 75 122 4 0 28 -29 54 -64z"/>
<path d="M12221 10866 c-18 -22 -33 -135 -27 -201 9 -91 56 -113 113 -52 62
65 67 163 11 231 -32 39 -75 49 -97 22z"/>
<path d="M11539 10706 c-88 -26 -123 -59 -134 -126 -14 -81 1 -116 79 -194 39
-39 85 -78 101 -86 17 -8 41 -22 55 -30 47 -31 135 -60 230 -76 160 -27 268
-5 339 70 30 31 35 42 34 84 -1 64 -38 135 -101 194 -55 52 -223 138 -307 158
-76 18 -242 21 -296 6z m174 -77 c52 -14 117 -74 117 -107 0 -14 -10 -36 -22
-49 -31 -34 -93 -31 -174 7 -77 37 -112 79 -95 116 19 42 93 56 174 33z"/>
<path d="M10792 7654 c-58 -67 -161 -231 -173 -277 -4 -18 -20 -66 -34 -107
-76 -219 -52 -395 74 -532 53 -58 99 -85 128 -74 14 6 8 16 -33 59 -58 60 -79
92 -100 150 -27 75 -34 144 -23 231 12 90 80 306 110 347 10 15 19 30 19 33 0
14 45 104 71 141 61 89 33 110 -39 29z"/>
<path d="M8436 4028 c-106 -167 -130 -250 -74 -256 31 -4 26 -12 97 163 23 55
41 110 41 123 0 38 -29 25 -64 -30z"/>
<path d="M9015 8869 c-38 -4 -104 -16 -145 -28 -41 -11 -111 -29 -154 -40
-127 -34 -273 -112 -305 -165 -31 -49 -27 -83 13 -121 30 -28 47 -34 115 -44
110 -16 368 2 485 34 261 72 354 111 419 176 62 62 64 96 8 149 -34 33 -46 38
-107 43 -87 9 -237 7 -329 -4z"/>
<path d="M8615 8166 c-112 -25 -178 -84 -214 -190 -27 -79 -27 -116 1 -194 31
-87 107 -159 196 -184 77 -23 101 -22 192 1 61 16 80 27 122 68 74 72 91 111
92 213 1 66 -3 92 -16 113 -10 14 -18 32 -18 40 0 17 -77 91 -115 110 -36 18
-126 37 -163 36 -15 -1 -49 -6 -77 -13z m211 -56 c95 -57 135 -116 142 -210 8
-118 -42 -196 -162 -255 -50 -24 -65 -27 -129 -23 -61 4 -80 10 -127 40 -88
57 -130 129 -130 224 0 99 61 181 175 236 57 27 176 21 231 -12z"/>
</g>
</svg>
